<svg width="21" height="20" viewBox="0 0 21 20" fill="none" xmlns="http://www.w3.org/2000/svg">
<path d="M17.1752 12.8167C16.1502 12.8167 15.1585 12.65 14.2335 12.35C14.0886 12.3009 13.9328 12.2936 13.7839 12.329C13.6351 12.3643 13.4992 12.4409 13.3919 12.55L12.0835 14.1917C9.72521 13.0667 7.51687 10.9417 6.34187 8.5L7.96687 7.11667C8.19187 6.88333 8.25854 6.55833 8.16687 6.26667C7.85854 5.34167 7.70021 4.35 7.70021 3.325C7.70021 2.875 7.32521 2.5 6.87521 2.5H3.99187C3.54187 2.5 3.00021 2.7 3.00021 3.325C3.00021 11.0667 9.44187 17.5 17.1752 17.5C17.7669 17.5 18.0002 16.975 18.0002 16.5167V13.6417C18.0002 13.1917 17.6252 12.8167 17.1752 12.8167Z" fill="#333333"/>
</svg>
