<svg width="344" height="236" viewBox="0 0 344 236" fill="none" xmlns="http://www.w3.org/2000/svg">
<g clip-path="url(#clip0_1_707)">
<path d="M300.707 49.7578H300.659L272.838 61.6174L234.774 77.8439C234.625 77.9064 234.465 77.9389 234.304 77.9398C234.143 77.9406 233.983 77.9096 233.833 77.8487L194.562 61.5835L166.058 49.7772L166.014 49.7578H165.966C165.516 49.7583 165.085 49.9369 164.767 50.2544C164.449 50.5719 164.27 51.0023 164.27 51.4513V124.999C164.27 125.448 164.449 125.879 164.767 126.196C165.085 126.514 165.516 126.692 165.966 126.693H300.707C301.157 126.692 301.588 126.514 301.906 126.196C302.224 125.879 302.403 125.448 302.404 124.999V51.4513C302.403 51.0023 302.224 50.5719 301.906 50.2544C301.588 49.9369 301.157 49.7583 300.707 49.7578Z" fill="white"/>
<path d="M300.827 50.2387C300.778 50.2388 300.729 50.2236 300.689 50.1954L233.667 3.59812C233.463 3.45697 233.221 3.38154 232.973 3.38196C232.725 3.38238 232.482 3.45864 232.279 3.60047L165.74 50.1949C165.688 50.2315 165.623 50.2457 165.559 50.2345C165.496 50.2234 165.44 50.1876 165.403 50.1352C165.366 50.0828 165.352 50.018 165.363 49.9549C165.374 49.8918 165.409 49.8356 165.462 49.7987L232.001 3.20428C232.285 3.00574 232.624 2.89901 232.972 2.89844C233.319 2.89787 233.659 3.00348 233.944 3.20109L300.966 49.7982C301.008 49.8277 301.04 49.8698 301.056 49.9186C301.073 49.9674 301.074 50.0202 301.058 50.0693C301.043 50.1185 301.012 50.1614 300.97 50.1918C300.929 50.2223 300.879 50.2387 300.827 50.2387Z" fill="#3F3D56"/>
<path d="M169.543 51.8935L233.039 4.91406L297.017 55.2361L236.311 91.1631L203.352 83.6635L169.543 51.8935Z" fill="#E6E6E6"/>
<path d="M206.133 113.352H174.765C174.376 113.352 174.003 113.199 173.728 112.925C173.452 112.651 173.297 112.279 173.297 111.891C173.296 111.503 173.45 111.131 173.725 110.856C173.999 110.581 174.372 110.426 174.76 110.426H206.133C206.522 110.425 206.895 110.579 207.17 110.853C207.445 111.127 207.6 111.499 207.601 111.887C207.602 112.275 207.448 112.647 207.173 112.922C206.899 113.197 206.526 113.351 206.138 113.352H206.133Z" fill="#0182FA"/>
<path d="M186.018 107.063H174.764C174.375 107.063 174.002 106.909 173.727 106.635C173.452 106.362 173.297 105.99 173.297 105.602C173.296 105.214 173.45 104.842 173.724 104.567C173.998 104.292 174.371 104.138 174.759 104.137H186.018C186.21 104.136 186.401 104.174 186.579 104.247C186.757 104.32 186.919 104.428 187.055 104.563C187.192 104.699 187.3 104.86 187.374 105.038C187.448 105.215 187.486 105.405 187.487 105.598C187.487 105.79 187.449 105.98 187.376 106.158C187.302 106.336 187.195 106.497 187.059 106.633C186.923 106.769 186.761 106.877 186.583 106.951C186.405 107.025 186.215 107.063 186.022 107.063H186.018Z" fill="#0182FA"/>
<path d="M233.933 78.0569C233.695 78.0572 233.459 78.011 233.238 77.9209L194.078 61.6996V10.924C194.079 10.475 194.258 10.0446 194.576 9.72707C194.894 9.40959 195.325 9.23099 195.774 9.23047H270.9C271.35 9.23099 271.781 9.40959 272.099 9.72707C272.417 10.0446 272.596 10.475 272.597 10.924V61.735L272.523 61.7664L234.65 77.913C234.423 78.0081 234.179 78.0571 233.933 78.0569Z" fill="white"/>
<path d="M233.93 78.1815C233.675 78.1818 233.424 78.1326 233.188 78.0367L193.953 61.7842V10.9278C193.954 10.4467 194.145 9.9855 194.486 9.64534C194.827 9.30517 195.289 9.11383 195.771 9.11328H270.896C271.378 9.11383 271.84 9.30517 272.181 9.64534C272.522 9.9855 272.713 10.4467 272.714 10.9278V61.8187L234.694 78.028C234.452 78.1296 234.192 78.1818 233.93 78.1815ZM194.438 61.4609L233.373 77.5894C233.736 77.7365 234.143 77.734 234.504 77.5826L272.229 61.4992V10.9278C272.229 10.575 272.088 10.2368 271.838 9.98735C271.588 9.73791 271.25 9.59759 270.896 9.59717H195.771C195.417 9.59759 195.079 9.73791 194.829 9.98735C194.579 10.2368 194.438 10.575 194.438 10.9278L194.438 61.4609Z" fill="#3F3D56"/>
<path d="M300.344 49.7578H300.296L272.475 61.6174L234.41 77.8439C234.262 77.9064 234.102 77.9389 233.941 77.9398C233.779 77.9406 233.619 77.9096 233.47 77.8487L194.199 61.5835L165.695 49.7772L165.651 49.7578H165.603C165.153 49.7583 164.722 49.9369 164.404 50.2544C164.086 50.5719 163.907 51.0023 163.906 51.4513V124.999C163.907 125.448 164.086 125.879 164.404 126.196C164.722 126.514 165.153 126.692 165.603 126.693H300.344C300.794 126.692 301.225 126.514 301.543 126.196C301.861 125.879 302.04 125.448 302.04 124.999V51.4513C302.04 51.0023 301.861 50.5719 301.543 50.2544C301.225 49.9369 300.794 49.7583 300.344 49.7578ZM301.556 124.999C301.556 125.32 301.428 125.628 301.201 125.854C300.974 126.081 300.665 126.209 300.344 126.209H165.603C165.281 126.209 164.973 126.081 164.746 125.854C164.519 125.628 164.391 125.32 164.391 124.999V51.4513C164.391 51.1385 164.513 50.838 164.73 50.6125C164.947 50.3871 165.243 50.2542 165.557 50.2417L194.199 62.1061L233.284 78.2963C233.707 78.4682 234.181 78.4655 234.602 78.289L272.475 62.1424L300.393 50.2417C300.705 50.2552 301 50.3884 301.217 50.6137C301.434 50.839 301.555 51.139 301.556 51.4513V124.999Z" fill="#3F3D56"/>
<path d="M227.836 28.2108H201.178C200.664 28.2101 200.172 28.0058 199.809 27.6429C199.446 27.28 199.242 26.7882 199.242 26.2753C199.242 25.7625 199.446 25.2706 199.809 24.9077C200.172 24.5448 200.664 24.3406 201.178 24.3398H227.836C228.349 24.3406 228.842 24.5448 229.205 24.9077C229.568 25.2706 229.772 25.7625 229.772 26.2753C229.772 26.7882 229.568 27.28 229.205 27.6429C228.842 28.0058 228.349 28.2101 227.836 28.2108Z" fill="#0182FA"/>
<path d="M214.021 19.9881H201.177C200.663 19.9881 200.17 19.7842 199.806 19.4212C199.443 19.0583 199.238 18.566 199.238 18.0527C199.238 17.5393 199.443 17.047 199.806 16.6841C200.17 16.3211 200.663 16.1172 201.177 16.1172H214.021C214.535 16.1172 215.028 16.3211 215.392 16.6841C215.756 17.047 215.96 17.5393 215.96 18.0527C215.96 18.566 215.756 19.0583 215.392 19.4212C215.028 19.7842 214.535 19.9881 214.021 19.9881Z" fill="#0182FA"/>
<path d="M253.274 47.5663H212.561C212.047 47.5655 211.555 47.3613 211.192 46.9984C210.829 46.6355 210.625 46.1436 210.625 45.6308C210.625 45.1179 210.829 44.6261 211.192 44.2632C211.555 43.9003 212.047 43.696 212.561 43.6953H253.274C253.788 43.696 254.28 43.9003 254.643 44.2632C255.006 44.6261 255.21 45.1179 255.21 45.6308C255.21 46.1436 255.006 46.6355 254.643 46.9984C254.28 47.3613 253.788 47.5655 253.274 47.5663Z" fill="#CCCCCC"/>
<path d="M253.273 56.5194H212.56C212.046 56.5194 211.553 56.3155 211.189 55.9525C210.825 55.5895 210.621 55.0972 210.621 54.5839C210.621 54.0706 210.825 53.5783 211.189 53.2153C211.553 52.8524 212.046 52.6484 212.56 52.6484H253.273C253.787 52.6484 254.28 52.8524 254.644 53.2153C255.008 53.5783 255.212 54.0706 255.212 54.5839C255.212 55.0972 255.008 55.5895 254.644 55.9525C254.28 56.3155 253.787 56.5194 253.273 56.5194Z" fill="#CCCCCC"/>
<path d="M299.591 68.8623C309.772 68.8623 318.026 60.6226 318.026 50.4585C318.026 40.2943 309.772 32.0547 299.591 32.0547C289.41 32.0547 281.156 40.2943 281.156 50.4585C281.156 60.6226 289.41 68.8623 299.591 68.8623Z" fill="#0182FA"/>
<path d="M297.838 58.2249L292.32 51.1421L295.529 48.6507L298.141 52.0042L306.967 42.7031L309.918 45.4945L297.838 58.2249Z" fill="white"/>
<path d="M93.3055 159.226C92.9839 158.754 92.7701 158.217 92.6789 157.653C92.5877 157.089 92.6215 156.512 92.7779 155.963C92.9342 155.414 93.2093 154.905 93.5838 154.473C93.9583 154.042 94.4231 153.697 94.9454 153.464L93.7465 139.633L100.1 143.07L100.264 155.678C100.598 156.58 100.589 157.573 100.239 158.468C99.8887 159.364 99.2215 160.1 98.3637 160.538C97.506 160.975 96.5173 161.083 95.585 160.842C94.6527 160.6 93.8417 160.025 93.3055 159.226Z" fill="#FFC555"/>
<path d="M94.509 150.478L94.4574 150.348L87.4481 132.67L86.3359 99.1605L86.5227 99.1472C87.8915 99.0496 89.2659 99.2261 90.5654 99.6662C91.8649 100.106 93.0632 100.801 94.0899 101.71C95.1166 102.619 95.951 103.724 96.5441 104.959C97.1373 106.194 97.4771 107.535 97.5438 108.904L98.5718 126.92L101.486 150.091L94.509 150.478Z" fill="#0182FA"/>
<path d="M49.7344 224.36L53.7637 226.91L65.5344 212.608L59.5874 208.844L49.7344 224.36Z" fill="#FFC555"/>
<path d="M49.5407 222.398L57.4761 227.421C58.8172 228.27 59.766 229.616 60.113 231.163C60.4601 232.71 60.1775 234.331 59.3273 235.67L59.2231 235.834L46.2305 227.611L49.5407 222.398Z" fill="#2F2E41"/>
<path d="M87.8289 231.216L92.5999 231.215L94.8695 212.844L87.8281 212.844L87.8289 231.216Z" fill="#FFC555"/>
<path d="M86.6094 229.661L96.0051 229.66H96.0055C97.5935 229.66 99.1164 230.29 100.239 231.411C101.362 232.532 101.993 234.052 101.993 235.638V235.832L86.6097 235.833L86.6094 229.661Z" fill="#2F2E41"/>
<path d="M74.3281 154.241L85.56 221.685C85.56 221.685 83.3505 227.2 86.6648 227.935C89.9791 228.67 97.3443 227.2 97.3443 227.2C97.3443 227.2 99.5539 221.685 96.2395 220.95L89.9791 150.48L74.3281 154.241Z" fill="#2F2E41"/>
<path d="M80.9587 155.443L73.1774 186.979L53.3393 215.736C53.3393 215.736 45.9741 216.471 50.0249 220.515C54.0758 224.559 55.9171 224.927 55.9171 224.927C55.9171 224.927 62.1775 224.191 61.8092 221.25L86.1988 192.59L97.5303 154.34L80.9587 155.443Z" fill="#2F2E41"/>
<path d="M74.1671 158.22L72.2879 147.514C69.458 144.561 74.8051 137.261 75.4013 136.468L75.0515 131.928C74.7533 131.878 74.4806 131.729 74.276 131.507C72.5205 129.72 72.6384 122.668 72.6443 122.369L70.707 102.25L75.527 99.4431L87.7161 99.0508L93.6687 104.201L99.402 156.785L99.1975 156.797L74.1671 158.22Z" fill="#0182FA"/>
<path d="M78.3876 161.975C77.8963 161.682 77.4753 161.285 77.1542 160.813C76.8331 160.34 76.6197 159.803 76.529 159.239C76.4384 158.675 76.4727 158.098 76.6295 157.549C76.7864 156.999 77.062 156.491 77.4369 156.06L70.5 144.027L77.7132 144.465L83.1946 155.824C83.8789 156.501 84.2907 157.405 84.352 158.365C84.4133 159.324 84.1199 160.273 83.5274 161.031C82.9349 161.789 82.0844 162.304 81.1371 162.478C80.1898 162.652 79.2115 162.473 78.3876 161.975Z" fill="#FFC555"/>
<path d="M72.2451 150.724L66.2613 136.877L65.2613 108.589C65.227 107.66 65.4486 106.739 65.9019 105.926C66.3552 105.114 67.0229 104.441 67.8324 103.981L74.7355 99.7695L76.2248 129.507L80.6793 147.28L72.2451 150.724Z" fill="#0182FA"/>
<path d="M82.9826 96.3701C87.7128 96.3701 91.5473 92.542 91.5473 87.8198C91.5473 83.0976 87.7128 79.2695 82.9826 79.2695C78.2525 79.2695 74.418 83.0976 74.418 87.8198C74.418 92.542 78.2525 96.3701 82.9826 96.3701Z" fill="#FFC555"/>
<path d="M86.0816 75.1927C77.4561 72.7095 75.0077 79.8465 75.0077 79.8465C70.85 82.6003 73.4531 86.0527 73.4531 86.0527C72.404 86.2854 74.5016 92.4142 75.201 92.2591C75.5742 92.1764 76.5339 93.32 77.3479 94.4046C77.627 94.4042 77.9054 94.4309 78.1794 94.4843L76.6001 88.6518C76.6001 88.6518 81.9233 87.8377 83.5553 85.2777C85.1168 82.8285 90.257 82.0553 91.7199 83.6912C91.8063 83.2208 91.9835 82.7717 92.2416 82.3688C92.4413 82.0627 92.7025 81.8013 93.0086 81.6011C91.7152 76.1139 86.0816 75.1927 86.0816 75.1927Z" fill="#2F2E41"/>
<path opacity="0.2" d="M76.3607 118.671L75.8828 135.692L81.8143 148.173L76.3607 118.219" fill="black"/>
<path d="M199.478 236H0.522193C0.383699 236 0.250877 235.959 0.152946 235.886C0.0550162 235.813 0 235.714 0 235.611C0 235.508 0.0550162 235.409 0.152946 235.336C0.250877 235.264 0.383699 235.223 0.522193 235.223H199.478C199.616 235.223 199.749 235.264 199.847 235.336C199.945 235.409 200 235.508 200 235.611C200 235.714 199.945 235.813 199.847 235.886C199.749 235.959 199.616 236 199.478 236Z" fill="#0182FA"/>
<path d="M128.162 18.3659C128.036 18.2916 127.892 18.2543 127.746 18.2581C127.6 18.2619 127.458 18.3067 127.336 18.3875C127.214 18.4682 127.118 18.5816 127.057 18.7145C126.997 18.8475 126.976 18.9947 126.995 19.1393L127.596 23.5385C127.605 23.6033 127.6 23.6692 127.583 23.7323C127.564 23.7945 127.533 23.8522 127.491 23.9017L124.126 27.8814C124.014 28.0095 123.948 28.1716 123.939 28.3417C123.93 28.5117 123.978 28.6799 124.076 28.8191L124.08 28.8242C124.174 28.9648 124.313 29.07 124.474 29.123C124.635 29.1759 124.809 29.1736 124.968 29.1163L127.398 28.2929C127.479 28.2663 127.565 28.262 127.648 28.2806C127.731 28.2992 127.807 28.34 127.868 28.3984C127.914 28.4408 127.951 28.4921 127.976 28.5493C128 28.6064 128.013 28.668 128.013 28.7303L128.108 37.3741C128.109 37.4992 128.141 37.6222 128.2 37.7325C128.259 37.8427 128.344 37.9369 128.448 38.0069C128.552 38.0767 128.671 38.1207 128.795 38.1352C128.919 38.1496 129.045 38.134 129.161 38.0898L147.299 31.165C147.436 31.113 147.555 31.0236 147.643 30.907C147.731 30.7904 147.785 30.6513 147.797 30.5057C147.809 30.3602 147.781 30.2141 147.713 30.0842C147.646 29.9543 147.544 29.846 147.418 29.7717L147.171 29.6252L128.162 18.3659ZM127.303 19.0971C127.291 19.0102 127.304 18.9219 127.34 18.8421C127.377 18.7624 127.435 18.6944 127.508 18.6461C127.581 18.5977 127.666 18.5709 127.754 18.5687C127.842 18.5666 127.928 18.5891 128.004 18.6337L147.007 29.8897L147.26 30.0394C147.335 30.0843 147.396 30.1493 147.436 30.2271C147.476 30.3049 147.493 30.3923 147.486 30.4794C147.478 30.5665 147.446 30.6498 147.394 30.7197C147.341 30.7897 147.27 30.8435 147.189 30.8751L129.051 37.7999C128.981 37.8266 128.906 37.8359 128.831 37.8272C128.757 37.8184 128.685 37.7918 128.623 37.7496C128.561 37.7075 128.51 37.651 128.475 37.585C128.439 37.5189 128.42 37.4454 128.419 37.3704L128.324 28.7268C128.324 28.6413 128.31 28.5564 128.281 28.4758L146.746 30.5939C146.818 30.6029 146.891 30.5865 146.952 30.5475C147.014 30.5085 147.059 30.4494 147.081 30.3804C147.103 30.3114 147.101 30.2369 147.074 30.1697C147.047 30.1025 146.997 30.0468 146.933 30.0123C146.918 30.0037 146.901 29.9966 146.884 29.9912L127.909 23.6678C127.913 23.6106 127.912 23.553 127.903 23.4962L127.303 19.0971Z" fill="#0182FA"/>
<path d="M128.162 18.3659C128.036 18.2916 127.892 18.2543 127.746 18.2581C127.6 18.2619 127.458 18.3067 127.336 18.3875C127.214 18.4682 127.118 18.5816 127.057 18.7145C126.997 18.8475 126.976 18.9947 126.995 19.1393L127.596 23.5385C127.605 23.6033 127.6 23.6692 127.583 23.7323C127.564 23.7945 127.533 23.8522 127.491 23.9017L124.126 27.8814C124.014 28.0095 123.948 28.1716 123.939 28.3417C123.93 28.5117 123.978 28.6799 124.076 28.8191L124.08 28.8242C124.174 28.9648 124.313 29.07 124.474 29.123C124.635 29.1759 124.809 29.1736 124.968 29.1163L127.398 28.2929C127.479 28.2663 127.565 28.262 127.648 28.2806C127.731 28.2992 127.807 28.34 127.868 28.3984C127.914 28.4408 127.951 28.4921 127.976 28.5493C128 28.6064 128.013 28.668 128.013 28.7303L128.108 37.3741C128.109 37.4992 128.141 37.6222 128.2 37.7325C128.259 37.8427 128.344 37.9369 128.448 38.0069C128.552 38.0767 128.671 38.1207 128.795 38.1352C128.919 38.1496 129.045 38.134 129.161 38.0898L147.299 31.165C147.436 31.113 147.555 31.0236 147.643 30.907C147.731 30.7904 147.785 30.6513 147.797 30.5057C147.809 30.3602 147.781 30.2141 147.713 30.0842C147.646 29.9543 147.544 29.846 147.418 29.7717L147.171 29.6252L128.162 18.3659ZM127.303 19.0971C127.291 19.0102 127.304 18.9219 127.34 18.8421C127.377 18.7624 127.435 18.6944 127.508 18.6461C127.581 18.5977 127.666 18.5709 127.754 18.5687C127.842 18.5666 127.928 18.5891 128.004 18.6337L147.007 29.8897L147.26 30.0394C147.335 30.0843 147.396 30.1493 147.436 30.2271C147.476 30.3049 147.493 30.3923 147.486 30.4794C147.478 30.5665 147.446 30.6498 147.394 30.7197C147.341 30.7897 147.27 30.8435 147.189 30.8751L129.051 37.7999C128.981 37.8266 128.906 37.8359 128.831 37.8271C128.757 37.8184 128.685 37.7918 128.623 37.7496C128.561 37.7075 128.51 37.651 128.475 37.585C128.439 37.5189 128.42 37.4453 128.419 37.3704L128.324 28.7268C128.324 28.6412 128.31 28.5563 128.281 28.4758C128.24 28.3598 128.172 28.2555 128.082 28.1719C128.069 28.1596 128.056 28.1483 128.042 28.1368L128.041 28.1356C127.94 28.0516 127.818 27.995 127.688 27.9712C127.558 27.9473 127.424 27.957 127.299 27.9994L124.868 28.8237C124.772 28.8584 124.667 28.8598 124.57 28.8276C124.474 28.7954 124.391 28.7316 124.335 28.6464L124.333 28.6439C124.273 28.5607 124.244 28.4597 124.249 28.3575C124.255 28.2554 124.295 28.1581 124.363 28.0817L127.728 24.1021C127.764 24.0605 127.795 24.0149 127.821 23.9662L127.822 23.9654C127.847 23.9188 127.867 23.8697 127.881 23.819C127.896 23.7697 127.905 23.719 127.909 23.6678C127.914 23.6106 127.912 23.553 127.903 23.4962L127.303 19.0971Z" fill="#0182FA"/>
<path d="M127.912 23.6687L146.888 29.9921C146.904 29.9976 146.921 30.0046 146.936 30.0133C147 30.0477 147.05 30.1034 147.077 30.1706C147.104 30.2378 147.107 30.3123 147.085 30.3813C147.062 30.4503 147.017 30.5094 146.956 30.5484C146.895 30.5874 146.822 30.6038 146.75 30.5948L128.284 28.4767L127.958 28.4396L127.994 28.1318L128.045 28.1365L128.046 28.1377L146.785 30.2857L127.825 23.9663L127.824 23.9671L127.742 23.9389L127.841 23.6445L127.912 23.6687Z" fill="#0182FA"/>
<path d="M339.774 0.108079L320.765 11.3674L320.518 11.5138C320.392 11.5882 320.29 11.6965 320.223 11.8264C320.156 11.9563 320.127 12.1024 320.14 12.2479C320.152 12.3935 320.205 12.5326 320.293 12.6492C320.382 12.7658 320.501 12.8552 320.638 12.9072L338.775 19.832C338.892 19.8762 339.018 19.8918 339.142 19.8773C339.266 19.8629 339.385 19.8189 339.488 19.7491C339.592 19.6791 339.677 19.5849 339.737 19.4746C339.796 19.3644 339.827 19.2414 339.828 19.1163L339.923 10.4725C339.923 10.4102 339.936 10.3486 339.961 10.2914C339.986 10.2343 340.022 10.183 340.068 10.1406C340.13 10.0821 340.206 10.0414 340.289 10.0228C340.371 10.0042 340.458 10.0085 340.538 10.0351L342.968 10.8585C343.128 10.9158 343.302 10.9181 343.463 10.8652C343.624 10.8122 343.762 10.707 343.857 10.5663L343.86 10.5612C343.958 10.4221 344.007 10.2539 343.998 10.0839C343.989 9.9138 343.923 9.75169 343.811 9.62359L340.446 5.64394C340.404 5.59438 340.372 5.53671 340.353 5.47452C340.336 5.41135 340.332 5.3455 340.34 5.28064L340.941 0.881523C340.961 0.736931 340.939 0.58971 340.879 0.456731C340.819 0.323753 340.722 0.210403 340.601 0.129669C340.479 0.0489362 340.337 0.00408535 340.191 0.000266068C340.045 -0.00355321 339.9 0.0338178 339.774 0.108079ZM340.634 0.839274L340.033 5.23838C340.025 5.2952 340.023 5.35277 340.028 5.41L321.052 11.7334C321.035 11.7388 321.019 11.7459 321.004 11.7545C320.94 11.789 320.89 11.8446 320.863 11.9118C320.836 11.9791 320.833 12.0536 320.855 12.1226C320.877 12.1916 320.923 12.2507 320.984 12.2897C321.045 12.3286 321.118 12.3451 321.19 12.3361L339.656 10.218C339.627 10.2985 339.612 10.3834 339.612 10.469L339.517 19.1126C339.516 19.1875 339.497 19.2611 339.462 19.3272C339.426 19.3932 339.375 19.4497 339.313 19.4918C339.251 19.534 339.18 19.5606 339.105 19.5693C339.031 19.5781 338.955 19.5688 338.885 19.5421L320.748 12.6173C320.666 12.5857 320.595 12.5319 320.543 12.4619C320.49 12.392 320.458 12.3087 320.451 12.2216C320.443 12.1345 320.461 12.0471 320.501 11.9693C320.541 11.8915 320.602 11.8265 320.677 11.7816L320.93 11.6319L339.933 0.375891C340.008 0.331247 340.095 0.308732 340.183 0.310919C340.27 0.313107 340.356 0.339911 340.429 0.388263C340.502 0.436614 340.56 0.504556 340.596 0.584315C340.633 0.664074 340.646 0.75245 340.634 0.839274Z" fill="#0182FA"/>
<path d="M339.774 0.108079L320.765 11.3674L320.518 11.5138C320.392 11.5882 320.29 11.6965 320.223 11.8264C320.156 11.9563 320.127 12.1024 320.14 12.2479C320.152 12.3935 320.205 12.5326 320.293 12.6492C320.382 12.7658 320.501 12.8552 320.638 12.9072L338.775 19.832C338.892 19.8762 339.018 19.8918 339.142 19.8773C339.266 19.8629 339.385 19.8189 339.488 19.7491C339.592 19.6791 339.677 19.5849 339.737 19.4746C339.796 19.3644 339.827 19.2414 339.828 19.1163L339.923 10.4725C339.923 10.4102 339.936 10.3486 339.961 10.2914C339.986 10.2343 340.022 10.183 340.068 10.1406C340.13 10.0821 340.206 10.0414 340.289 10.0228C340.371 10.0042 340.458 10.0085 340.538 10.0351L342.968 10.8585C343.128 10.9158 343.302 10.9181 343.463 10.8652C343.624 10.8122 343.762 10.707 343.857 10.5663L343.86 10.5612C343.958 10.4221 344.007 10.2539 343.998 10.0839C343.989 9.9138 343.923 9.75169 343.811 9.62359L340.446 5.64394C340.404 5.59438 340.372 5.53671 340.353 5.47452C340.336 5.41135 340.332 5.3455 340.34 5.28064L340.941 0.881523C340.961 0.736931 340.939 0.58971 340.879 0.456731C340.819 0.323753 340.722 0.210403 340.601 0.129669C340.479 0.0489362 340.337 0.00408535 340.191 0.000266068C340.045 -0.00355321 339.9 0.0338178 339.774 0.108079ZM340.634 0.839274L340.033 5.23839C340.025 5.29521 340.023 5.35278 340.028 5.41001C340.031 5.46122 340.041 5.51189 340.055 5.56114C340.07 5.6119 340.089 5.66097 340.114 5.70754L340.116 5.70842C340.141 5.75705 340.173 5.80264 340.209 5.84432L343.574 9.82391C343.642 9.90029 343.682 9.99756 343.687 10.0997C343.693 10.2019 343.663 10.3029 343.604 10.386L343.602 10.3886C343.546 10.4738 343.463 10.5376 343.366 10.5698C343.27 10.602 343.165 10.6006 343.069 10.5659L340.638 9.74156C340.512 9.69922 340.379 9.68952 340.249 9.71336C340.119 9.7372 339.997 9.79379 339.895 9.87777L339.894 9.87902C339.881 9.89045 339.867 9.90183 339.855 9.91408C339.765 9.99769 339.696 10.102 339.656 10.218C339.627 10.2985 339.612 10.3834 339.612 10.469L339.517 19.1126C339.516 19.1875 339.497 19.2611 339.462 19.3271C339.426 19.3932 339.375 19.4497 339.313 19.4918C339.251 19.534 339.18 19.5606 339.105 19.5693C339.031 19.5781 338.955 19.5687 338.885 19.5421L320.748 12.6173C320.666 12.5857 320.595 12.5319 320.543 12.4619C320.49 12.392 320.458 12.3087 320.451 12.2216C320.443 12.1345 320.461 12.0471 320.501 11.9693C320.541 11.8915 320.602 11.8265 320.677 11.7816L320.93 11.6319L339.933 0.375897C340.008 0.331253 340.095 0.308738 340.183 0.310925C340.27 0.313113 340.356 0.339917 340.429 0.388268C340.502 0.43662 340.56 0.504562 340.596 0.584321C340.633 0.664079 340.646 0.75245 340.634 0.839274Z" fill="#0182FA"/>
<path d="M340.103 5.38672L340.201 5.68108L340.119 5.70932L340.118 5.70845L321.158 12.0279L339.898 9.87992L339.899 9.87868L339.949 9.87395L339.985 10.1818L339.659 10.2189L321.194 12.337C321.122 12.346 321.049 12.3296 320.987 12.2906C320.926 12.2516 320.881 12.1925 320.859 12.1235C320.836 12.0545 320.839 11.98 320.866 11.9128C320.893 11.8456 320.943 11.7899 321.007 11.7554C321.022 11.7468 321.039 11.7398 321.056 11.7343L340.031 5.41093L340.103 5.38672Z" fill="#0182FA"/>
<path d="M177.115 157.429C176.985 157.496 176.876 157.598 176.801 157.723C176.726 157.848 176.688 157.992 176.692 158.138C176.695 158.284 176.739 158.426 176.82 158.548C176.9 158.67 177.013 158.766 177.146 158.827L181.192 160.671C181.251 160.699 181.305 160.738 181.349 160.786C181.392 160.835 181.424 160.892 181.443 160.954L183.014 165.92C183.062 166.084 183.164 166.226 183.304 166.324C183.443 166.423 183.611 166.472 183.781 166.463L183.788 166.463C183.957 166.459 184.12 166.398 184.251 166.29C184.382 166.183 184.473 166.035 184.51 165.869L185.111 163.379C185.132 163.297 185.174 163.222 185.234 163.162C185.294 163.102 185.37 163.059 185.452 163.039C185.512 163.023 185.575 163.019 185.637 163.029C185.699 163.038 185.758 163.061 185.81 163.094L193.179 167.633C193.286 167.699 193.407 167.738 193.532 167.747C193.657 167.756 193.782 167.735 193.897 167.684C194.011 167.634 194.112 167.558 194.19 167.461C194.269 167.364 194.323 167.249 194.348 167.127L198.178 148.122C198.207 147.979 198.195 147.83 198.144 147.694C198.092 147.557 198.003 147.438 197.886 147.349C197.77 147.261 197.631 147.207 197.485 147.194C197.339 147.182 197.193 147.21 197.062 147.277L196.806 147.407L177.115 157.429ZM177.275 158.545C177.195 158.509 177.127 158.451 177.079 158.377C177.031 158.304 177.004 158.219 177.002 158.131C177.001 158.044 177.023 157.957 177.068 157.882C177.114 157.807 177.179 157.746 177.257 157.706L196.942 147.687L197.204 147.553C197.283 147.514 197.37 147.497 197.457 147.505C197.545 147.513 197.628 147.545 197.698 147.598C197.767 147.651 197.821 147.722 197.852 147.804C197.883 147.885 197.891 147.974 197.874 148.06L194.044 167.065C194.029 167.138 193.996 167.207 193.949 167.265C193.902 167.324 193.841 167.369 193.772 167.399C193.703 167.429 193.628 167.442 193.554 167.437C193.479 167.431 193.406 167.408 193.342 167.369L185.974 162.829C185.901 162.784 185.821 162.751 185.738 162.732L197.399 148.283C197.446 148.227 197.471 148.157 197.47 148.084C197.47 148.012 197.444 147.942 197.398 147.886C197.351 147.831 197.287 147.793 197.215 147.78C197.144 147.767 197.07 147.779 197.007 147.815C196.991 147.823 196.977 147.833 196.963 147.844L181.468 160.476C181.422 160.442 181.373 160.413 181.32 160.389L177.275 158.545Z" fill="#0182FA"/>
<path d="M177.115 157.429C176.985 157.496 176.876 157.598 176.801 157.723C176.726 157.848 176.688 157.992 176.692 158.138C176.695 158.284 176.739 158.426 176.82 158.548C176.9 158.67 177.013 158.766 177.146 158.827L181.192 160.671C181.251 160.699 181.305 160.738 181.349 160.786C181.392 160.835 181.424 160.892 181.443 160.954L183.014 165.92C183.062 166.084 183.164 166.226 183.304 166.324C183.443 166.423 183.611 166.472 183.781 166.463L183.788 166.463C183.957 166.459 184.12 166.398 184.251 166.29C184.382 166.183 184.473 166.035 184.51 165.869L185.111 163.379C185.132 163.297 185.174 163.222 185.234 163.162C185.294 163.102 185.37 163.059 185.452 163.039C185.512 163.023 185.575 163.019 185.637 163.029C185.699 163.038 185.758 163.061 185.81 163.094L193.179 167.633C193.286 167.699 193.407 167.738 193.532 167.747C193.657 167.756 193.782 167.735 193.897 167.684C194.011 167.634 194.112 167.558 194.19 167.461C194.269 167.364 194.323 167.249 194.348 167.127L198.178 148.122C198.207 147.979 198.195 147.83 198.144 147.694C198.092 147.557 198.003 147.438 197.886 147.349C197.77 147.261 197.631 147.207 197.485 147.194C197.339 147.182 197.193 147.21 197.062 147.277L196.806 147.407L177.115 157.429ZM177.275 158.545C177.195 158.509 177.127 158.451 177.079 158.377C177.031 158.304 177.004 158.219 177.002 158.131C177.001 158.044 177.023 157.957 177.068 157.882C177.114 157.807 177.179 157.746 177.257 157.706L196.942 147.687L197.204 147.553C197.283 147.514 197.37 147.497 197.457 147.505C197.545 147.513 197.628 147.545 197.698 147.598C197.767 147.651 197.821 147.722 197.852 147.804C197.883 147.885 197.891 147.974 197.874 148.06L194.044 167.065C194.029 167.138 193.996 167.207 193.949 167.265C193.902 167.324 193.841 167.369 193.772 167.399C193.703 167.429 193.628 167.442 193.554 167.437C193.479 167.431 193.406 167.408 193.342 167.369L185.974 162.829C185.901 162.784 185.821 162.751 185.738 162.732C185.618 162.704 185.493 162.706 185.374 162.738C185.357 162.741 185.34 162.747 185.323 162.752L185.322 162.752C185.196 162.793 185.083 162.866 184.994 162.963C184.904 163.06 184.841 163.178 184.81 163.306L184.208 165.798C184.186 165.897 184.132 165.987 184.053 166.051C183.974 166.115 183.875 166.151 183.773 166.153L183.77 166.153C183.668 166.159 183.567 166.13 183.483 166.071C183.399 166.011 183.339 165.926 183.31 165.827L181.739 160.861C181.723 160.809 181.701 160.758 181.674 160.71L181.674 160.709C181.648 160.663 181.617 160.62 181.582 160.58C181.548 160.542 181.51 160.507 181.468 160.476C181.422 160.442 181.373 160.413 181.32 160.389L177.275 158.545Z" fill="#0182FA"/>
<path d="M181.465 160.475L196.96 147.843C196.973 147.832 196.988 147.822 197.003 147.813C197.067 147.778 197.14 147.765 197.212 147.779C197.283 147.792 197.348 147.829 197.394 147.885C197.441 147.94 197.467 148.01 197.467 148.083C197.467 148.155 197.442 148.225 197.396 148.281L185.734 162.731L185.529 162.986L185.287 162.791L185.318 162.751L185.32 162.751L197.153 148.086L181.671 160.707L181.671 160.709L181.603 160.763L181.406 160.522L181.465 160.475Z" fill="#0182FA"/>
</g>
<defs>
<clipPath id="clip0_1_707">
<rect width="344" height="236" fill="white"/>
</clipPath>
</defs>
</svg>
