<svg width="21" height="20" viewBox="0 0 21 20" fill="none" xmlns="http://www.w3.org/2000/svg">
<path d="M10.5002 1.6665C7.2752 1.6665 4.66687 4.27484 4.66687 7.49984C4.66687 8.94984 5.08354 10.3082 5.84187 11.5332C6.63354 12.8165 7.6752 13.9165 8.4752 15.1998C8.86687 15.8248 9.1502 16.4082 9.4502 17.0832C9.66687 17.5415 9.84187 18.3332 10.5002 18.3332C11.1585 18.3332 11.3335 17.5415 11.5419 17.0832C11.8502 16.4082 12.1252 15.8248 12.5169 15.1998C13.3169 13.9248 14.3585 12.8248 15.1502 11.5332C15.9169 10.3082 16.3335 8.94984 16.3335 7.49984C16.3335 4.27484 13.7252 1.6665 10.5002 1.6665ZM10.5002 9.7915C9.94767 9.7915 9.41777 9.57201 9.02706 9.18131C8.63636 8.79061 8.41687 8.26071 8.41687 7.70817C8.41687 7.15564 8.63636 6.62573 9.02706 6.23503C9.41777 5.84433 9.94767 5.62484 10.5002 5.62484C11.0527 5.62484 11.5826 5.84433 11.9733 6.23503C12.364 6.62573 12.5835 7.15564 12.5835 7.70817C12.5835 8.26071 12.364 8.79061 11.9733 9.18131C11.5826 9.57201 11.0527 9.7915 10.5002 9.7915V9.7915Z" fill="#333333"/>
</svg>
