<svg width="1026" height="40" viewBox="0 0 1026 40" fill="none" xmlns="http://www.w3.org/2000/svg">
<g clip-path="url(#clip0_1_2510)">
<path d="M2.66851 14.0994V24H0.889503V14.0994H2.66851ZM6.12085 19.6492V24H4.37568V16.5746H6.0435V17.8363H6.13535C6.47375 17.0048 7.23272 16.4779 8.3446 16.4779C9.87706 16.4779 10.8874 17.4931 10.8874 19.2721V24H9.14225V19.538C9.14709 18.547 8.60565 17.9523 7.69681 17.9523C6.77347 17.9523 6.12085 18.5711 6.12085 19.6492ZM14.2283 19.6492V24H12.4831V16.5746H14.1509V17.8363H14.2428C14.5812 17.0048 15.3401 16.4779 16.452 16.4779C17.9845 16.4779 18.9948 17.4931 18.9948 19.2721V24H17.2497V19.538C17.2545 18.547 16.7131 17.9523 15.8042 17.9523C14.8809 17.9523 14.2283 18.5711 14.2283 19.6492ZM23.8343 24.145C21.6637 24.145 20.2715 22.6126 20.2715 20.3163C20.2715 18.0152 21.6637 16.4779 23.8343 16.4779C26.0049 16.4779 27.3875 18.0152 27.3875 20.3163C27.3875 22.6126 26.0049 24.145 23.8343 24.145ZM22.036 20.3115C22.036 21.6699 22.6306 22.7528 23.8391 22.7528C25.0284 22.7528 25.623 21.6699 25.623 20.3115C25.623 18.953 25.0284 17.8557 23.8391 17.8557C22.6306 17.8557 22.036 18.953 22.036 20.3115ZM35.0571 16.5746L32.4031 24H30.4839L27.8396 16.5746H29.6911L31.4072 22.0953H31.4846L33.2008 16.5746H35.0571ZM35.5139 21.9164C35.5139 20.239 36.9014 19.7507 38.284 19.6588C38.7964 19.625 39.8648 19.5767 40.1838 19.5622L40.179 18.9627C40.179 18.2327 39.7052 17.8073 38.8351 17.8073C38.0568 17.8073 37.583 18.1602 37.4476 18.692H35.7653C35.891 17.4351 37.0222 16.4779 38.8834 16.4779C40.2854 16.4779 41.9145 17.058 41.9145 19.0352V24H40.2467V22.98H40.1887C39.8696 23.5988 39.1686 24.1499 38.0036 24.1499C36.592 24.1499 35.5139 23.3764 35.5139 21.9164ZM37.2011 21.8923C37.2011 22.5352 37.7232 22.8688 38.4532 22.8688C39.5119 22.8688 40.1887 22.1678 40.1887 21.3363L40.1838 20.7224C39.8696 20.7369 38.9028 20.7997 38.5499 20.8336C37.7232 20.8964 37.2011 21.2445 37.2011 21.8923ZM47.198 16.5746V17.9185H45.7428V21.7666C45.7428 22.482 46.0957 22.6271 46.5405 22.6367C46.7435 22.6416 47.0819 22.6174 47.3043 22.6029V24.029C47.0964 24.0628 46.7629 24.1015 46.3181 24.1015C45.008 24.1015 43.9928 23.4537 44.0025 22.0566V17.9185H42.9438V16.5746H44.0025V14.7956H45.7428V16.5746H47.198ZM48.4811 24V16.5746H50.2263V24H48.4811ZM48.3458 14.5732C48.3458 14.0463 48.8002 13.6257 49.3561 13.6257C49.9073 13.6257 50.3665 14.0463 50.3665 14.5732C50.3665 15.0953 49.9073 15.5159 49.3561 15.5159C48.8002 15.5159 48.3458 15.0953 48.3458 14.5732ZM58.477 16.5746L55.823 24H53.9038L51.2595 16.5746H53.111L54.8272 22.0953H54.9045L56.6207 16.5746H58.477ZM62.5282 24.145C60.2948 24.145 58.9219 22.6561 58.9219 20.3308C58.9219 18.0394 60.3141 16.4779 62.4364 16.4779C64.2589 16.4779 65.83 17.6188 65.83 20.2293V20.7659H60.6525C60.6719 22.0421 61.4163 22.7914 62.5524 22.7914C63.3114 22.7914 63.8286 22.4579 64.0558 22.0131H65.7575C65.4433 23.299 64.2589 24.145 62.5282 24.145ZM60.6574 19.5863H64.1574C64.1477 18.576 63.4709 17.8363 62.4654 17.8363C61.4115 17.8363 60.7105 18.6388 60.6574 19.5863ZM73.889 24H70.534V14.0994H73.9519C76.9056 14.0994 78.6846 15.9558 78.6846 19.0401C78.6846 22.134 76.9056 24 73.889 24ZM72.313 22.4579H73.802C75.8662 22.4579 76.9201 21.317 76.9201 19.0401C76.9201 16.768 75.8662 15.6416 73.8503 15.6416H72.313V22.4579ZM79.7835 21.9164C79.7835 20.239 81.1709 19.7507 82.5535 19.6588C83.0659 19.625 84.1343 19.5767 84.4534 19.5622L84.4485 18.9627C84.4485 18.2327 83.9748 17.8073 83.1046 17.8073C82.3263 17.8073 81.8525 18.1602 81.7172 18.692H80.0349C80.1605 17.4351 81.2918 16.4779 83.1529 16.4779C84.5549 16.4779 86.184 17.058 86.184 19.0352V24H84.5162V22.98H84.4582C84.1391 23.5988 83.4382 24.1499 82.2731 24.1499C80.8615 24.1499 79.7835 23.3764 79.7835 21.9164ZM81.4706 21.8923C81.4706 22.5352 81.9927 22.8688 82.7227 22.8688C83.7814 22.8688 84.4582 22.1678 84.4582 21.3363L84.4534 20.7224C84.1391 20.7369 83.1723 20.7997 82.8194 20.8336C81.9927 20.8964 81.4706 21.2445 81.4706 21.8923ZM91.4675 16.5746V17.9185H90.0124V21.7666C90.0124 22.482 90.3653 22.6271 90.81 22.6367C91.0131 22.6416 91.3515 22.6174 91.5738 22.6029V24.029C91.366 24.0628 91.0324 24.1015 90.5877 24.1015C89.2776 24.1015 88.2624 23.4537 88.272 22.0566V17.9185H87.2133V16.5746H88.272V14.7956H90.0124V16.5746H91.4675ZM92.4026 21.9164C92.4026 20.239 93.79 19.7507 95.1726 19.6588C95.6851 19.625 96.7534 19.5767 97.0725 19.5622L97.0677 18.9627C97.0677 18.2327 96.5939 17.8073 95.7237 17.8073C94.9454 17.8073 94.4717 18.1602 94.3363 18.692H92.654C92.7797 17.4351 93.9109 16.4779 95.7721 16.4779C97.174 16.4779 98.8032 17.058 98.8032 19.0352V24H97.1353V22.98H97.0773C96.7583 23.5988 96.0573 24.1499 94.8923 24.1499C93.4807 24.1499 92.4026 23.3764 92.4026 21.9164ZM94.0898 21.8923C94.0898 22.5352 94.6119 22.8688 95.3418 22.8688C96.4005 22.8688 97.0773 22.1678 97.0773 21.3363L97.0725 20.7224C96.7583 20.7369 95.7914 20.7997 95.4385 20.8336C94.6119 20.8964 94.0898 21.2445 94.0898 21.8923ZM110.459 17.4399C110.256 16.2507 109.304 15.5642 108.1 15.5642C106.476 15.5642 105.335 16.8115 105.335 19.0497C105.335 21.3267 106.486 22.5352 108.095 22.5352C109.28 22.5352 110.227 21.8778 110.459 20.7175L112.258 20.7272C111.987 22.6174 110.421 24.1354 108.071 24.1354C105.461 24.1354 103.541 22.2403 103.541 19.0497C103.541 15.8494 105.485 13.9641 108.071 13.9641C110.261 13.9641 111.948 15.2355 112.258 17.4399H110.459ZM116.885 24.145C114.715 24.145 113.322 22.6126 113.322 20.3163C113.322 18.0152 114.715 16.4779 116.885 16.4779C119.056 16.4779 120.438 18.0152 120.438 20.3163C120.438 22.6126 119.056 24.145 116.885 24.145ZM115.087 20.3115C115.087 21.6699 115.681 22.7528 116.89 22.7528C118.079 22.7528 118.674 21.6699 118.674 20.3115C118.674 18.953 118.079 17.8557 116.89 17.8557C115.681 17.8557 115.087 18.953 115.087 20.3115ZM123.48 14.0994V24H121.735V14.0994H123.48ZM126.844 14.0994V24H125.098V14.0994H126.844ZM131.749 24.145C129.515 24.145 128.143 22.6561 128.143 20.3308C128.143 18.0394 129.535 16.4779 131.657 16.4779C133.48 16.4779 135.051 17.6188 135.051 20.2293V20.7659H129.873C129.893 22.0421 130.637 22.7914 131.773 22.7914C132.532 22.7914 133.049 22.4579 133.277 22.0131H134.978C134.664 23.299 133.48 24.145 131.749 24.145ZM129.878 19.5863H133.378C133.368 18.576 132.692 17.8363 131.686 17.8363C130.632 17.8363 129.931 18.6388 129.878 19.5863ZM139.594 24.145C137.375 24.145 136.031 22.5642 136.031 20.3163C136.031 18.049 137.409 16.4779 139.58 16.4779C141.388 16.4779 142.644 17.5366 142.765 19.1367H141.102C140.967 18.4213 140.45 17.8798 139.609 17.8798C138.516 17.8798 137.796 18.7838 137.796 20.2873C137.796 21.8149 138.506 22.7238 139.609 22.7238C140.377 22.7238 140.948 22.2693 141.102 21.4717H142.765C142.64 23.038 141.45 24.145 139.594 24.145ZM147.714 16.5746V17.9185H146.258V21.7666C146.258 22.482 146.611 22.6271 147.056 22.6367C147.259 22.6416 147.598 22.6174 147.82 22.6029V24.029C147.612 24.0628 147.278 24.1015 146.834 24.1015C145.524 24.1015 144.508 23.4537 144.518 22.0566V17.9185H143.459V16.5746H144.518V14.7956H146.258V16.5746H147.714ZM148.997 24V16.5746H150.742V24H148.997ZM148.861 14.5732C148.861 14.0463 149.316 13.6257 149.872 13.6257C150.423 13.6257 150.882 14.0463 150.882 14.5732C150.882 15.0953 150.423 15.5159 149.872 15.5159C149.316 15.5159 148.861 15.0953 148.861 14.5732ZM155.604 24.145C153.433 24.145 152.041 22.6126 152.041 20.3163C152.041 18.0152 153.433 16.4779 155.604 16.4779C157.774 16.4779 159.157 18.0152 159.157 20.3163C159.157 22.6126 157.774 24.145 155.604 24.145ZM153.805 20.3115C153.805 21.6699 154.4 22.7528 155.609 22.7528C156.798 22.7528 157.393 21.6699 157.393 20.3115C157.393 18.953 156.798 17.8557 155.609 17.8557C154.4 17.8557 153.805 18.953 153.805 20.3115ZM162.199 19.6492V24H160.454V16.5746H162.122V17.8363H162.213C162.552 17.0048 163.311 16.4779 164.423 16.4779C165.955 16.4779 166.966 17.4931 166.966 19.2721V24H165.22V19.538C165.225 18.547 164.684 17.9523 163.775 17.9523C162.852 17.9523 162.199 18.5711 162.199 19.6492ZM171.526 15.5981V14.0994H179.415V15.5981H176.36V24H174.591V15.5981H171.526ZM182.882 24.145C180.648 24.145 179.275 22.6561 179.275 20.3308C179.275 18.0394 180.668 16.4779 182.79 16.4779C184.612 16.4779 186.184 17.6188 186.184 20.2293V20.7659H181.006C181.025 22.0421 181.77 22.7914 182.906 22.7914C183.665 22.7914 184.182 22.4579 184.409 22.0131H186.111C185.797 23.299 184.612 24.145 182.882 24.145ZM181.011 19.5863H184.511C184.501 18.576 183.824 17.8363 182.819 17.8363C181.765 17.8363 181.064 18.6388 181.011 19.5863ZM190.727 24.145C188.508 24.145 187.164 22.5642 187.164 20.3163C187.164 18.049 188.542 16.4779 190.712 16.4779C192.52 16.4779 193.777 17.5366 193.898 19.1367H192.235C192.1 18.4213 191.583 17.8798 190.741 17.8798C189.649 17.8798 188.929 18.7838 188.929 20.2873C188.929 21.8149 189.639 22.7238 190.741 22.7238C191.51 22.7238 192.08 22.2693 192.235 21.4717H193.898C193.772 23.038 192.583 24.145 190.727 24.145ZM196.898 19.6492V24H195.153V14.0994H196.86V17.8363H196.951C197.29 16.9952 198.015 16.4779 199.156 16.4779C200.693 16.4779 201.713 17.4738 201.713 19.2721V24H199.968V19.538C199.973 18.5325 199.427 17.9523 198.508 17.9523C197.57 17.9523 196.898 18.5711 196.898 19.6492ZM205.06 19.6492V24H203.315V16.5746H204.983V17.8363H205.075C205.413 17.0048 206.172 16.4779 207.284 16.4779C208.817 16.4779 209.827 17.4931 209.827 19.2721V24H208.082V19.538C208.087 18.547 207.545 17.9523 206.636 17.9523C205.713 17.9523 205.06 18.5711 205.06 19.6492ZM214.666 24.145C212.496 24.145 211.103 22.6126 211.103 20.3163C211.103 18.0152 212.496 16.4779 214.666 16.4779C216.837 16.4779 218.22 18.0152 218.22 20.3163C218.22 22.6126 216.837 24.145 214.666 24.145ZM212.868 20.3115C212.868 21.6699 213.463 22.7528 214.671 22.7528C215.86 22.7528 216.455 21.6699 216.455 20.3115C216.455 18.953 215.86 17.8557 214.671 17.8557C213.463 17.8557 212.868 18.953 212.868 20.3115ZM221.261 14.0994V24H219.516V14.0994H221.261ZM226.123 24.145C223.953 24.145 222.561 22.6126 222.561 20.3163C222.561 18.0152 223.953 16.4779 226.123 16.4779C228.294 16.4779 229.677 18.0152 229.677 20.3163C229.677 22.6126 228.294 24.145 226.123 24.145ZM224.325 20.3115C224.325 21.6699 224.92 22.7528 226.128 22.7528C227.317 22.7528 227.912 21.6699 227.912 20.3115C227.912 18.953 227.317 17.8557 226.128 17.8557C224.92 17.8557 224.325 18.953 224.325 20.3115ZM234.203 26.9392C232.24 26.9392 230.993 26.0642 230.867 24.6623H232.612C232.738 25.3198 233.347 25.6243 234.232 25.6243C235.281 25.6243 235.962 25.1699 235.962 24.0773V22.6657H235.87C235.605 23.2072 235.01 23.8936 233.734 23.8936C232.018 23.8936 230.669 22.6464 230.669 20.2293C230.669 17.788 232.022 16.4779 233.739 16.4779C235.053 16.4779 235.605 17.2659 235.875 17.7977H235.967V16.5746H237.683V24.1209C237.683 26.0207 236.214 26.9392 234.203 26.9392ZM232.448 20.2535C232.448 21.6264 233.062 22.5256 234.217 22.5256C235.334 22.5256 235.972 21.6796 235.972 20.2535C235.972 18.8419 235.348 17.9088 234.217 17.9088C233.047 17.9088 232.448 18.8999 232.448 20.2535ZM239.3 24V16.5746H241.045V24H239.3ZM239.164 14.5732C239.164 14.0463 239.619 13.6257 240.175 13.6257C240.726 13.6257 241.185 14.0463 241.185 14.5732C241.185 15.0953 240.726 15.5159 240.175 15.5159C239.619 15.5159 239.164 15.0953 239.164 14.5732ZM245.95 24.145C243.717 24.145 242.344 22.6561 242.344 20.3308C242.344 18.0394 243.736 16.4779 245.858 16.4779C247.681 16.4779 249.252 17.6188 249.252 20.2293V20.7659H244.074C244.094 22.0421 244.838 22.7914 245.974 22.7914C246.733 22.7914 247.25 22.4579 247.478 22.0131H249.179C248.865 23.299 247.681 24.145 245.95 24.145ZM244.079 19.5863H247.579C247.57 18.576 246.893 17.8363 245.887 17.8363C244.833 17.8363 244.132 18.6388 244.079 19.5863ZM254.762 18.692C254.656 18.136 254.192 17.7735 253.452 17.7735C252.708 17.7735 252.161 18.1457 252.161 18.6485C252.161 19.0401 252.466 19.3253 253.22 19.4993L254.482 19.77C255.879 20.0698 256.56 20.7224 256.565 21.7811C256.56 23.1782 255.342 24.145 253.404 24.145C251.509 24.145 250.392 23.3039 250.218 21.8874H251.982C252.094 22.5159 252.587 22.8301 253.399 22.8301C254.24 22.8301 254.786 22.4869 254.791 21.9358C254.786 21.5055 254.453 21.23 253.713 21.0704L252.519 20.8191C251.141 20.5338 250.426 19.8135 250.431 18.75C250.426 17.3771 251.61 16.4779 253.428 16.4779C255.197 16.4779 256.29 17.3432 256.415 18.692H254.762Z" fill="#0166B8"/>
<path d="M301.489 24H300.193L303.819 14.0994H305.115L308.74 24H307.445L306.459 21.2155H302.475L301.489 24ZM302.857 20.1326H306.077L304.506 15.6948H304.428L302.857 20.1326ZM312.607 24.1547C310.761 24.1547 309.455 22.6657 309.455 20.3066C309.455 17.9572 310.761 16.4779 312.627 16.4779C314.067 16.4779 314.522 17.3577 314.773 17.7541H314.86V14.0994H316.04V24H314.899V22.8591H314.773C314.512 23.2749 314.029 24.1547 312.607 24.1547ZM310.645 20.2873C310.645 21.8633 311.37 23.1008 312.781 23.1008C314.135 23.1008 314.889 21.9503 314.889 20.2873C314.889 18.634 314.154 17.5318 312.781 17.5318C311.351 17.5318 310.645 18.7307 310.645 20.2873ZM324.09 16.5746L321.344 24H320.135L317.399 16.5746H318.675L320.706 22.4627H320.783L322.814 16.5746H324.09ZM324.713 21.8923C324.713 20.1906 326.212 19.8039 327.498 19.7072C327.981 19.6733 329.18 19.6057 329.509 19.596V18.9917C329.509 18.0539 328.948 17.5028 327.827 17.5028C326.889 17.5028 326.328 17.9378 326.154 18.5083H324.936C325.081 17.3094 326.241 16.4779 327.885 16.4779C328.851 16.4779 330.679 16.768 330.679 19.1077V24H329.509V22.9945H329.451C329.209 23.4876 328.532 24.174 327.246 24.174C325.835 24.174 324.713 23.3425 324.713 21.8923ZM325.893 21.9503C325.893 22.7334 326.541 23.1298 327.44 23.1298C328.774 23.1298 329.509 22.2403 329.509 21.3122V20.5628C329.161 20.5822 327.996 20.6692 327.643 20.6934C326.57 20.761 325.893 21.1381 325.893 21.9503ZM333.637 19.5428V24H332.458V16.5746H333.599V17.7445H333.695C334.043 16.9807 334.74 16.4779 335.861 16.4779C337.369 16.4779 338.375 17.3964 338.375 19.2818V24H337.195V19.3688C337.195 18.2182 336.567 17.5318 335.513 17.5318C334.43 17.5318 333.637 18.2569 333.637 19.5428ZM343.191 24.1547C341.093 24.1547 339.807 22.5497 339.807 20.326C339.807 18.0635 341.151 16.4779 343.172 16.4779C344.748 16.4779 345.937 17.4157 346.121 18.8177H344.951C344.777 18.1409 344.187 17.5221 343.191 17.5221C341.866 17.5221 340.987 18.6146 340.987 20.2873C340.987 21.9986 341.847 23.1008 343.191 23.1008C344.071 23.1008 344.738 22.6271 344.951 21.8149H346.121C345.937 23.1395 344.844 24.1547 343.191 24.1547ZM350.593 24.1547C348.446 24.1547 347.122 22.6271 347.122 20.3453C347.122 18.0635 348.465 16.4779 350.476 16.4779C352.043 16.4779 353.686 17.4351 353.686 20.1906V20.6837H348.306C348.359 22.25 349.273 23.1105 350.593 23.1105C351.482 23.1105 352.043 22.7238 352.314 22.2597H353.57C353.222 23.3909 352.12 24.1547 350.593 24.1547ZM348.306 19.6782H352.488C352.488 18.4406 351.704 17.5221 350.486 17.5221C349.195 17.5221 348.383 18.5373 348.306 19.6782ZM364.185 16.5939C364.079 15.6174 363.18 15.0566 361.99 15.0566C360.685 15.0566 359.825 15.7431 359.825 16.6809C359.825 17.7251 360.985 18.1119 361.729 18.3052L362.725 18.576C363.779 18.8467 365.519 19.4558 365.519 21.3025C365.519 22.9171 364.224 24.174 361.932 24.174C359.796 24.174 358.471 23.0718 358.355 21.4282H359.622C359.718 22.5401 360.753 23.0622 361.932 23.0622C363.296 23.0622 364.321 22.3564 364.321 21.2831C364.321 20.3163 363.402 19.9489 362.358 19.6588L361.149 19.3204C359.593 18.8757 358.626 18.0829 358.626 16.739C358.626 15.0663 360.115 13.9641 362.029 13.9641C363.953 13.9641 365.336 15.0856 365.384 16.5939H364.185ZM366.686 21.8923C366.686 20.1906 368.185 19.8039 369.47 19.7072C369.954 19.6733 371.153 19.6057 371.482 19.596V18.9917C371.482 18.0539 370.921 17.5028 369.799 17.5028C368.861 17.5028 368.301 17.9378 368.127 18.5083H366.908C367.053 17.3094 368.214 16.4779 369.857 16.4779C370.824 16.4779 372.651 16.768 372.651 19.1077V24H371.482V22.9945H371.424C371.182 23.4876 370.505 24.174 369.219 24.174C367.808 24.174 366.686 23.3425 366.686 21.8923ZM367.866 21.9503C367.866 22.7334 368.513 23.1298 369.412 23.1298C370.747 23.1298 371.482 22.2403 371.482 21.3122V20.5628C371.133 20.5822 369.968 20.6692 369.616 20.6934C368.542 20.761 367.866 21.1381 367.866 21.9503ZM374.431 24V16.5746H375.571V17.7445H375.668C375.977 16.942 376.693 16.4779 377.66 16.4779C378.636 16.4779 379.294 16.942 379.652 17.7445H379.729C380.106 16.971 380.889 16.4779 381.953 16.4779C383.277 16.4779 384.225 17.2901 384.225 19.0304V24H383.045V19.0497C383.045 17.9572 382.359 17.5318 381.547 17.5318C380.512 17.5318 379.922 18.2279 379.922 19.1754V24H378.733V18.9337C378.733 18.0925 378.134 17.5318 377.273 17.5318C376.393 17.5318 375.61 18.2859 375.61 19.3688V24H374.431ZM385.997 26.7845V16.5746H387.138V17.7541H387.273C387.525 17.3577 387.979 16.4779 389.42 16.4779C391.286 16.4779 392.581 17.9572 392.581 20.3066C392.581 22.6657 391.286 24.1547 389.439 24.1547C388.018 24.1547 387.525 23.2749 387.273 22.8591H387.176V26.7845H385.997ZM387.157 20.2873C387.157 21.9503 387.902 23.1008 389.265 23.1008C390.676 23.1008 391.402 21.8633 391.402 20.2873C391.402 18.7307 390.696 17.5318 389.265 17.5318C387.882 17.5318 387.157 18.634 387.157 20.2873ZM395.188 14.0994V24H394.009V14.0994H395.188ZM396.962 24V16.5746H398.141V24H396.962ZM396.73 14.5635C396.73 14.1285 397.107 13.7804 397.561 13.7804C398.006 13.7804 398.383 14.1285 398.383 14.5635C398.383 14.9986 398.006 15.3467 397.561 15.3467C397.107 15.3467 396.73 14.9986 396.73 14.5635ZM401.094 19.5428V24H399.915V16.5746H401.056V17.7445H401.152C401.501 16.9807 402.197 16.4779 403.318 16.4779C404.826 16.4779 405.832 17.3964 405.832 19.2818V24H404.652V19.3688C404.652 18.2182 404.024 17.5318 402.97 17.5318C401.887 17.5318 401.094 18.2569 401.094 19.5428ZM410.629 26.9392C408.83 26.9392 407.612 26.1561 407.477 24.7735H408.714C408.869 25.5373 409.575 25.9144 410.629 25.9144C411.895 25.9144 412.678 25.3633 412.678 24.1354V22.6271H412.582C412.33 23.0428 411.857 23.884 410.416 23.884C408.618 23.884 407.264 22.5207 407.264 20.1906C407.264 17.8992 408.569 16.4779 410.435 16.4779C411.876 16.4779 412.34 17.3577 412.601 17.7541H412.707V16.5746H413.848V24.203C413.848 26.1174 412.437 26.9392 410.629 26.9392ZM408.453 20.2293C408.453 21.7666 409.178 22.8398 410.59 22.8398C411.944 22.8398 412.698 21.8633 412.698 20.2293C412.698 18.634 411.963 17.5318 410.59 17.5318C409.159 17.5318 408.453 18.7307 408.453 20.2293ZM418.751 15.192V14.0994H426.205V15.192H423.102V24H421.864V15.192H418.751ZM429.643 24.1547C427.497 24.1547 426.172 22.6271 426.172 20.3453C426.172 18.0635 427.516 16.4779 429.527 16.4779C431.094 16.4779 432.737 17.4351 432.737 20.1906V20.6837H427.357C427.41 22.25 428.324 23.1105 429.643 23.1105C430.533 23.1105 431.094 22.7238 431.364 22.2597H432.621C432.273 23.3909 431.171 24.1547 429.643 24.1547ZM427.357 19.6782H431.538C431.538 18.4406 430.755 17.5221 429.537 17.5221C428.246 17.5221 427.434 18.5373 427.357 19.6782ZM437.199 24.1547C435.101 24.1547 433.815 22.5497 433.815 20.326C433.815 18.0635 435.159 16.4779 437.18 16.4779C438.755 16.4779 439.945 17.4157 440.128 18.8177H438.959C438.784 18.1409 438.195 17.5221 437.199 17.5221C435.874 17.5221 434.994 18.6146 434.994 20.2873C434.994 21.9986 435.855 23.1008 437.199 23.1008C438.079 23.1008 438.746 22.6271 438.959 21.8149H440.128C439.945 23.1395 438.852 24.1547 437.199 24.1547ZM442.657 19.5428V24H441.477V14.0994H442.657V17.7445H442.754C443.102 16.971 443.769 16.4779 444.939 16.4779C446.457 16.4779 447.472 17.3771 447.472 19.2818V24H446.292V19.3688C446.292 18.1989 445.654 17.5318 444.591 17.5318C443.479 17.5318 442.657 18.2569 442.657 19.5428ZM450.436 19.5428V24H449.257V16.5746H450.398V17.7445H450.494C450.842 16.9807 451.538 16.4779 452.66 16.4779C454.168 16.4779 455.174 17.3964 455.174 19.2818V24H453.994V19.3688C453.994 18.2182 453.366 17.5318 452.312 17.5318C451.229 17.5318 450.436 18.2569 450.436 19.5428ZM459.99 24.1547C457.969 24.1547 456.606 22.6271 456.606 20.326C456.606 18.0055 457.969 16.4779 459.99 16.4779C462.011 16.4779 463.364 18.0055 463.364 20.326C463.364 22.6271 462.011 24.1547 459.99 24.1547ZM457.785 20.326C457.785 21.8052 458.482 23.1105 459.99 23.1105C461.488 23.1105 462.185 21.8052 462.185 20.326C462.185 18.8467 461.488 17.5221 459.99 17.5221C458.482 17.5221 457.785 18.8467 457.785 20.326ZM465.981 14.0994V24H464.802V14.0994H465.981ZM470.791 24.1547C468.77 24.1547 467.407 22.6271 467.407 20.326C467.407 18.0055 468.77 16.4779 470.791 16.4779C472.811 16.4779 474.165 18.0055 474.165 20.326C474.165 22.6271 472.811 24.1547 470.791 24.1547ZM468.586 20.326C468.586 21.8052 469.282 23.1105 470.791 23.1105C472.289 23.1105 472.985 21.8052 472.985 20.326C472.985 18.8467 472.289 17.5221 470.791 17.5221C469.282 17.5221 468.586 18.8467 468.586 20.326ZM478.619 26.9392C476.821 26.9392 475.602 26.1561 475.467 24.7735H476.705C476.859 25.5373 477.565 25.9144 478.619 25.9144C479.886 25.9144 480.669 25.3633 480.669 24.1354V22.6271H480.572C480.321 23.0428 479.847 23.884 478.406 23.884C476.608 23.884 475.254 22.5207 475.254 20.1906C475.254 17.8992 476.56 16.4779 478.426 16.4779C479.866 16.4779 480.33 17.3577 480.591 17.7541H480.698V16.5746H481.839V24.203C481.839 26.1174 480.427 26.9392 478.619 26.9392ZM476.444 20.2293C476.444 21.7666 477.169 22.8398 478.58 22.8398C479.934 22.8398 480.688 21.8633 480.688 20.2293C480.688 18.634 479.953 17.5318 478.58 17.5318C477.149 17.5318 476.444 18.7307 476.444 20.2293ZM483.614 24V16.5746H484.794V24H483.614ZM483.382 14.5635C483.382 14.1285 483.759 13.7804 484.214 13.7804C484.658 13.7804 485.035 14.1285 485.035 14.5635C485.035 14.9986 484.658 15.3467 484.214 15.3467C483.759 15.3467 483.382 14.9986 483.382 14.5635ZM489.69 24.1547C487.544 24.1547 486.219 22.6271 486.219 20.3453C486.219 18.0635 487.563 16.4779 489.574 16.4779C491.14 16.4779 492.784 17.4351 492.784 20.1906V20.6837H487.404C487.457 22.25 488.37 23.1105 489.69 23.1105C490.58 23.1105 491.14 22.7238 491.411 22.2597H492.668C492.32 23.3909 491.218 24.1547 489.69 24.1547ZM487.404 19.6782H491.585C491.585 18.4406 490.802 17.5221 489.584 17.5221C488.293 17.5221 487.481 18.5373 487.404 19.6782ZM498.348 18.5083C498.193 17.8895 497.719 17.4834 496.849 17.4834C495.931 17.4834 495.283 17.9765 495.283 18.5953C495.283 19.0884 495.679 19.4268 496.55 19.6395L497.661 19.9102C498.986 20.2293 499.634 20.8867 499.634 21.9213C499.634 23.2072 498.59 24.1547 496.724 24.1547C495.061 24.1547 494.065 23.4102 493.871 22.0566H495.099C495.235 22.7818 495.766 23.1298 496.704 23.1298C497.758 23.1298 498.425 22.6851 498.425 21.989C498.425 21.4669 498.048 21.1188 497.207 20.9254L496.086 20.6644C494.79 20.3646 494.103 19.6588 494.103 18.663C494.103 17.3964 495.215 16.4779 496.849 16.4779C498.387 16.4779 499.353 17.2997 499.508 18.5083H498.348Z" fill="#666666"/>
<path d="M557.793 17.2127C557.512 15.8494 556.343 15.1146 555.037 15.1146C553.249 15.1146 551.856 16.4972 551.856 19.0497C551.856 21.6022 553.249 22.9848 555.037 22.9848C556.343 22.9848 557.503 22.25 557.793 20.8964H559.03C558.673 22.9171 557.048 24.1354 555.037 24.1354C552.494 24.1354 550.657 22.1823 550.657 19.0497C550.657 15.9171 552.494 13.9641 555.037 13.9641C557.039 13.9641 558.663 15.163 559.03 17.2127H557.793ZM565.19 20.9544V16.5746H566.36V24H565.19V22.7431H565.113C564.765 23.4972 564.03 24.0967 562.908 24.0967C561.506 24.0967 560.501 23.1782 560.501 21.2928V16.5746H561.68V21.2058C561.68 22.279 562.348 22.9655 563.295 22.9655C564.136 22.9655 565.19 22.337 565.19 20.9544ZM572.282 18.5083C572.127 17.8895 571.653 17.4834 570.783 17.4834C569.864 17.4834 569.217 17.9765 569.217 18.5953C569.217 19.0884 569.613 19.4268 570.483 19.6395L571.595 19.9102C572.92 20.2293 573.567 20.8867 573.567 21.9213C573.567 23.2072 572.523 24.1547 570.657 24.1547C568.994 24.1547 567.998 23.4102 567.805 22.0566H569.033C569.168 22.7818 569.7 23.1298 570.638 23.1298C571.692 23.1298 572.359 22.6851 572.359 21.989C572.359 21.4669 571.982 21.1188 571.141 20.9254L570.019 20.6644C568.724 20.3646 568.037 19.6588 568.037 18.663C568.037 17.3964 569.149 16.4779 570.783 16.4779C572.32 16.4779 573.287 17.2997 573.442 18.5083H572.282ZM578.242 16.5746V17.5608H576.675V21.8633C576.675 22.8204 577.149 22.9751 577.652 22.9751C577.865 22.9751 578.174 22.9558 578.348 22.9461V24.0387C578.164 24.0677 577.874 24.0967 577.526 24.0967C576.54 24.0967 575.496 23.4779 575.496 22.1727V17.5608H574.374V16.5746H575.496V14.7956H576.675V16.5746H578.242ZM582.609 24.1547C580.588 24.1547 579.225 22.6271 579.225 20.326C579.225 18.0055 580.588 16.4779 582.609 16.4779C584.63 16.4779 585.983 18.0055 585.983 20.326C585.983 22.6271 584.63 24.1547 582.609 24.1547ZM580.405 20.326C580.405 21.8052 581.101 23.1105 582.609 23.1105C584.108 23.1105 584.804 21.8052 584.804 20.326C584.804 18.8467 584.108 17.5221 582.609 17.5221C581.101 17.5221 580.405 18.8467 580.405 20.326ZM587.421 24V16.5746H588.562V17.7445H588.658C588.968 16.942 589.683 16.4779 590.65 16.4779C591.627 16.4779 592.284 16.942 592.642 17.7445H592.719C593.096 16.971 593.879 16.4779 594.943 16.4779C596.267 16.4779 597.215 17.2901 597.215 19.0304V24H596.035V19.0497C596.035 17.9572 595.349 17.5318 594.537 17.5318C593.502 17.5318 592.912 18.2279 592.912 19.1754V24H591.723V18.9337C591.723 18.0925 591.124 17.5318 590.263 17.5318C589.383 17.5318 588.6 18.2859 588.6 19.3688V24H587.421ZM598.987 24V16.5746H600.167V24H598.987ZM598.755 14.5635C598.755 14.1285 599.132 13.7804 599.587 13.7804C600.031 13.7804 600.408 14.1285 600.408 14.5635C600.408 14.9986 600.031 15.3467 599.587 15.3467C599.132 15.3467 598.755 14.9986 598.755 14.5635ZM606.078 18.5083C605.924 17.8895 605.45 17.4834 604.58 17.4834C603.661 17.4834 603.013 17.9765 603.013 18.5953C603.013 19.0884 603.41 19.4268 604.28 19.6395L605.392 19.9102C606.717 20.2293 607.364 20.8867 607.364 21.9213C607.364 23.2072 606.32 24.1547 604.454 24.1547C602.791 24.1547 601.795 23.4102 601.602 22.0566H602.83C602.965 22.7818 603.497 23.1298 604.435 23.1298C605.489 23.1298 606.156 22.6851 606.156 21.989C606.156 21.4669 605.779 21.1188 604.938 20.9254L603.816 20.6644C602.52 20.3646 601.834 19.6588 601.834 18.663C601.834 17.3964 602.946 16.4779 604.58 16.4779C606.117 16.4779 607.084 17.2997 607.239 18.5083H606.078ZM611.913 24.1547C609.766 24.1547 608.442 22.6271 608.442 20.3453C608.442 18.0635 609.786 16.4779 611.797 16.4779C613.363 16.4779 615.007 17.4351 615.007 20.1906V20.6837H609.626C609.679 22.25 610.593 23.1105 611.913 23.1105C612.802 23.1105 613.363 22.7238 613.634 22.2597H614.891C614.543 23.3909 613.44 24.1547 611.913 24.1547ZM609.626 19.6782H613.808C613.808 18.4406 613.025 17.5221 611.806 17.5221C610.516 17.5221 609.704 18.5373 609.626 19.6782ZM619.236 24.1547C617.39 24.1547 616.084 22.6657 616.084 20.3066C616.084 17.9572 617.39 16.4779 619.256 16.4779C620.696 16.4779 621.151 17.3577 621.402 17.7541H621.489V14.0994H622.669V24H621.528V22.8591H621.402C621.141 23.2749 620.658 24.1547 619.236 24.1547ZM617.274 20.2873C617.274 21.8633 617.999 23.1008 619.41 23.1008C620.764 23.1008 621.518 21.9503 621.518 20.2873C621.518 18.634 620.783 17.5318 619.41 17.5318C617.979 17.5318 617.274 18.7307 617.274 20.2873ZM633.681 16.5939C633.575 15.6174 632.676 15.0566 631.487 15.0566C630.181 15.0566 629.321 15.7431 629.321 16.6809C629.321 17.7251 630.481 18.1119 631.226 18.3052L632.221 18.576C633.275 18.8467 635.016 19.4558 635.016 21.3025C635.016 22.9171 633.72 24.174 631.429 24.174C629.292 24.174 627.967 23.0718 627.851 21.4282H629.118C629.214 22.5401 630.249 23.0622 631.429 23.0622C632.792 23.0622 633.817 22.3564 633.817 21.2831C633.817 20.3163 632.898 19.9489 631.854 19.6588L630.645 19.3204C629.089 18.8757 628.122 18.0829 628.122 16.739C628.122 15.0663 629.611 13.9641 631.525 13.9641C633.449 13.9641 634.832 15.0856 634.88 16.5939H633.681ZM641.219 20.9544V16.5746H642.389V24H641.219V22.7431H641.142C640.794 23.4972 640.059 24.0967 638.938 24.0967C637.536 24.0967 636.53 23.1782 636.53 21.2928V16.5746H637.71V21.2058C637.71 22.279 638.377 22.9655 639.324 22.9655C640.165 22.9655 641.219 22.337 641.219 20.9544ZM644.173 24V16.5746H645.314V17.7058H645.391C645.662 16.9613 646.435 16.4586 647.315 16.4586C647.489 16.4586 647.789 16.4682 647.924 16.4779V17.6671C647.837 17.6478 647.518 17.5898 647.218 17.5898C646.145 17.5898 645.352 18.3246 645.352 19.3204V24H644.173ZM655.314 16.5746L652.569 24H651.36L648.624 16.5746H649.9L651.93 22.4627H652.008L654.038 16.5746H655.314ZM659.368 24.1547C657.221 24.1547 655.897 22.6271 655.897 20.3453C655.897 18.0635 657.241 16.4779 659.252 16.4779C660.818 16.4779 662.462 17.4351 662.462 20.1906V20.6837H657.081C657.134 22.25 658.048 23.1105 659.368 23.1105C660.257 23.1105 660.818 22.7238 661.089 22.2597H662.346C661.998 23.3909 660.896 24.1547 659.368 24.1547ZM657.081 19.6782H661.263C661.263 18.4406 660.48 17.5221 659.262 17.5221C657.971 17.5221 657.159 18.5373 657.081 19.6782ZM664.409 26.7845C664.158 26.7845 663.907 26.7749 663.752 26.7555L663.761 25.7113C663.878 25.721 664.148 25.7307 664.332 25.7307C664.806 25.7307 665.212 25.7017 665.608 24.6188L665.821 24.0483L663.075 16.5746H664.351L666.382 22.4724H666.459L668.489 16.5746H669.766L666.623 25.0732C666.188 26.2334 665.463 26.7845 664.409 26.7845ZM677.713 24H674.638V14.0994H677.838C680.729 14.0994 682.431 15.9558 682.431 19.0304C682.431 22.1243 680.729 24 677.713 24ZM675.866 22.9075H677.635C680.062 22.9075 681.232 21.4378 681.232 19.0304C681.232 16.6423 680.062 15.192 677.761 15.192H675.866V22.9075ZM687.094 24.1547C684.948 24.1547 683.623 22.6271 683.623 20.3453C683.623 18.0635 684.967 16.4779 686.978 16.4779C688.545 16.4779 690.188 17.4351 690.188 20.1906V20.6837H684.808C684.861 22.25 685.775 23.1105 687.094 23.1105C687.984 23.1105 688.545 22.7238 688.815 22.2597H690.072C689.724 23.3909 688.622 24.1547 687.094 24.1547ZM684.808 19.6782H688.989C688.989 18.4406 688.206 17.5221 686.988 17.5221C685.697 17.5221 684.885 18.5373 684.808 19.6782ZM695.752 18.5083C695.598 17.8895 695.124 17.4834 694.254 17.4834C693.335 17.4834 692.687 17.9765 692.687 18.5953C692.687 19.0884 693.084 19.4268 693.954 19.6395L695.066 19.9102C696.39 20.2293 697.038 20.8867 697.038 21.9213C697.038 23.2072 695.994 24.1547 694.128 24.1547C692.465 24.1547 691.469 23.4102 691.276 22.0566H692.504C692.639 22.7818 693.171 23.1298 694.109 23.1298C695.162 23.1298 695.83 22.6851 695.83 21.989C695.83 21.4669 695.453 21.1188 694.611 20.9254L693.49 20.6644C692.194 20.3646 691.508 19.6588 691.508 18.663C691.508 17.3964 692.62 16.4779 694.254 16.4779C695.791 16.4779 696.758 17.2997 696.912 18.5083H695.752ZM698.464 24V16.5746H699.643V24H698.464ZM698.232 14.5635C698.232 14.1285 698.609 13.7804 699.063 13.7804C699.508 13.7804 699.885 14.1285 699.885 14.5635C699.885 14.9986 699.508 15.3467 699.063 15.3467C698.609 15.3467 698.232 14.9986 698.232 14.5635ZM704.433 26.9392C702.635 26.9392 701.417 26.1561 701.281 24.7735H702.519C702.674 25.5373 703.38 25.9144 704.433 25.9144C705.7 25.9144 706.483 25.3633 706.483 24.1354V22.6271H706.386C706.135 23.0428 705.661 23.884 704.221 23.884C702.422 23.884 701.069 22.5207 701.069 20.1906C701.069 17.8992 702.374 16.4779 704.24 16.4779C705.681 16.4779 706.145 17.3577 706.406 17.7541H706.512V16.5746H707.653V24.203C707.653 26.1174 706.241 26.9392 704.433 26.9392ZM702.258 20.2293C702.258 21.7666 702.983 22.8398 704.395 22.8398C705.748 22.8398 706.502 21.8633 706.502 20.2293C706.502 18.634 705.768 17.5318 704.395 17.5318C702.964 17.5318 702.258 18.7307 702.258 20.2293ZM710.608 19.5428V24H709.429V16.5746H710.569V17.7445H710.666C711.014 16.9807 711.71 16.4779 712.832 16.4779C714.34 16.4779 715.346 17.3964 715.346 19.2818V24H714.166V19.3688C714.166 18.2182 713.538 17.5318 712.484 17.5318C711.401 17.5318 710.608 18.2569 710.608 19.5428Z" fill="#666666"/>
<path d="M773.793 17.2127C773.512 15.8494 772.343 15.1146 771.037 15.1146C769.249 15.1146 767.856 16.4972 767.856 19.0497C767.856 21.6022 769.249 22.9848 771.037 22.9848C772.343 22.9848 773.503 22.25 773.793 20.8964H775.03C774.673 22.9171 773.048 24.1354 771.037 24.1354C768.494 24.1354 766.657 22.1823 766.657 19.0497C766.657 15.9171 768.494 13.9641 771.037 13.9641C773.039 13.9641 774.663 15.163 775.03 17.2127H773.793ZM779.537 24.1547C777.516 24.1547 776.153 22.6271 776.153 20.326C776.153 18.0055 777.516 16.4779 779.537 16.4779C781.557 16.4779 782.911 18.0055 782.911 20.326C782.911 22.6271 781.557 24.1547 779.537 24.1547ZM777.332 20.326C777.332 21.8052 778.028 23.1105 779.537 23.1105C781.035 23.1105 781.731 21.8052 781.731 20.326C781.731 18.8467 781.035 17.5221 779.537 17.5221C778.028 17.5221 777.332 18.8467 777.332 20.326ZM784.348 24V16.5746H785.489V17.7445H785.586C785.895 16.942 786.611 16.4779 787.578 16.4779C788.554 16.4779 789.212 16.942 789.569 17.7445H789.647C790.024 16.971 790.807 16.4779 791.871 16.4779C793.195 16.4779 794.143 17.2901 794.143 19.0304V24H792.963V19.0497C792.963 17.9572 792.277 17.5318 791.465 17.5318C790.43 17.5318 789.84 18.2279 789.84 19.1754V24H788.651V18.9337C788.651 18.0925 788.052 17.5318 787.191 17.5318C786.311 17.5318 785.528 18.2859 785.528 19.3688V24H784.348ZM795.915 26.7845V16.5746H797.056V17.7541H797.191C797.443 17.3577 797.897 16.4779 799.338 16.4779C801.204 16.4779 802.499 17.9572 802.499 20.3066C802.499 22.6657 801.204 24.1547 799.357 24.1547C797.936 24.1547 797.443 23.2749 797.191 22.8591H797.094V26.7845H795.915ZM797.075 20.2873C797.075 21.9503 797.82 23.1008 799.183 23.1008C800.594 23.1008 801.32 21.8633 801.32 20.2873C801.32 18.7307 800.614 17.5318 799.183 17.5318C797.8 17.5318 797.075 18.634 797.075 20.2873ZM803.927 24V16.5746H805.067V17.7058H805.145C805.416 16.9613 806.189 16.4586 807.069 16.4586C807.243 16.4586 807.543 16.4682 807.678 16.4779V17.6671C807.591 17.6478 807.272 17.5898 806.972 17.5898C805.899 17.5898 805.106 18.3246 805.106 19.3204V24H803.927ZM811.616 24.1547C809.47 24.1547 808.145 22.6271 808.145 20.3453C808.145 18.0635 809.489 16.4779 811.5 16.4779C813.066 16.4779 814.71 17.4351 814.71 20.1906V20.6837H809.329C809.383 22.25 810.296 23.1105 811.616 23.1105C812.505 23.1105 813.066 22.7238 813.337 22.2597H814.594C814.246 23.3909 813.144 24.1547 811.616 24.1547ZM809.329 19.6782H813.511C813.511 18.4406 812.728 17.5221 811.51 17.5221C810.219 17.5221 809.407 18.5373 809.329 19.6782ZM817.315 19.5428V24H816.136V14.0994H817.315V17.7445H817.412C817.76 16.971 818.427 16.4779 819.597 16.4779C821.115 16.4779 822.13 17.3771 822.13 19.2818V24H820.951V19.3688C820.951 18.1989 820.312 17.5318 819.249 17.5318C818.137 17.5318 817.315 18.2569 817.315 19.5428ZM827.038 24.1547C824.891 24.1547 823.567 22.6271 823.567 20.3453C823.567 18.0635 824.911 16.4779 826.922 16.4779C828.488 16.4779 830.132 17.4351 830.132 20.1906V20.6837H824.751C824.804 22.25 825.718 23.1105 827.038 23.1105C827.927 23.1105 828.488 22.7238 828.759 22.2597H830.016C829.668 23.3909 828.565 24.1547 827.038 24.1547ZM824.751 19.6782H828.933C828.933 18.4406 828.15 17.5221 826.931 17.5221C825.641 17.5221 824.829 18.5373 824.751 19.6782ZM832.737 19.5428V24H831.557V16.5746H832.698V17.7445H832.795C833.143 16.9807 833.839 16.4779 834.961 16.4779C836.469 16.4779 837.475 17.3964 837.475 19.2818V24H836.295V19.3688C836.295 18.2182 835.667 17.5318 834.613 17.5318C833.53 17.5318 832.737 18.2569 832.737 19.5428ZM843.393 18.5083C843.238 17.8895 842.764 17.4834 841.894 17.4834C840.976 17.4834 840.328 17.9765 840.328 18.5953C840.328 19.0884 840.724 19.4268 841.595 19.6395L842.706 19.9102C844.031 20.2293 844.679 20.8867 844.679 21.9213C844.679 23.2072 843.635 24.1547 841.769 24.1547C840.106 24.1547 839.11 23.4102 838.916 22.0566H840.144C840.28 22.7818 840.811 23.1298 841.749 23.1298C842.803 23.1298 843.47 22.6851 843.47 21.989C843.47 21.4669 843.093 21.1188 842.252 20.9254L841.13 20.6644C839.835 20.3646 839.148 19.6588 839.148 18.663C839.148 17.3964 840.26 16.4779 841.894 16.4779C843.432 16.4779 844.398 17.2997 844.553 18.5083H843.393ZM846.104 24V16.5746H847.284V24H846.104ZM845.872 14.5635C845.872 14.1285 846.249 13.7804 846.704 13.7804C847.149 13.7804 847.526 14.1285 847.526 14.5635C847.526 14.9986 847.149 15.3467 846.704 15.3467C846.249 15.3467 845.872 14.9986 845.872 14.5635ZM855.168 16.5746L852.422 24H851.214L848.477 16.5746H849.754L851.784 22.4627H851.861L853.892 16.5746H855.168ZM859.221 24.1547C857.075 24.1547 855.75 22.6271 855.75 20.3453C855.75 18.0635 857.094 16.4779 859.105 16.4779C860.672 16.4779 862.315 17.4351 862.315 20.1906V20.6837H856.935C856.988 22.25 857.902 23.1105 859.221 23.1105C860.111 23.1105 860.672 22.7238 860.942 22.2597H862.199C861.851 23.3909 860.749 24.1547 859.221 24.1547ZM856.935 19.6782H861.116C861.116 18.4406 860.333 17.5221 859.115 17.5221C857.824 17.5221 857.012 18.5373 856.935 19.6782ZM870.484 24H867.409V14.0994H870.61C873.501 14.0994 875.202 15.9558 875.202 19.0304C875.202 22.1243 873.501 24 870.484 24ZM868.637 22.9075H870.407C872.833 22.9075 874.003 21.4378 874.003 19.0304C874.003 16.6423 872.833 15.192 870.532 15.192H868.637V22.9075ZM876.395 21.8923C876.395 20.1906 877.894 19.8039 879.179 19.7072C879.663 19.6733 880.862 19.6057 881.191 19.596V18.9917C881.191 18.0539 880.63 17.5028 879.508 17.5028C878.57 17.5028 878.01 17.9378 877.836 18.5083H876.617C876.762 17.3094 877.923 16.4779 879.566 16.4779C880.533 16.4779 882.36 16.768 882.36 19.1077V24H881.191V22.9945H881.133C880.891 23.4876 880.214 24.174 878.928 24.174C877.516 24.174 876.395 23.3425 876.395 21.8923ZM877.575 21.9503C877.575 22.7334 878.222 23.1298 879.121 23.1298C880.456 23.1298 881.191 22.2403 881.191 21.3122V20.5628C880.842 20.5822 879.677 20.6692 879.325 20.6934C878.251 20.761 877.575 21.1381 877.575 21.9503ZM887.388 16.5746V17.5608H885.822V21.8633C885.822 22.8204 886.296 22.9751 886.798 22.9751C887.011 22.9751 887.32 22.9558 887.494 22.9461V24.0387C887.311 24.0677 887.021 24.0967 886.673 24.0967C885.686 24.0967 884.642 23.4779 884.642 22.1727V17.5608H883.521V16.5746H884.642V14.7956H885.822V16.5746H887.388ZM888.454 21.8923C888.454 20.1906 889.952 19.8039 891.238 19.7072C891.722 19.6733 892.92 19.6057 893.249 19.596V18.9917C893.249 18.0539 892.688 17.5028 891.567 17.5028C890.629 17.5028 890.068 17.9378 889.894 18.5083H888.676C888.821 17.3094 889.981 16.4779 891.625 16.4779C892.592 16.4779 894.419 16.768 894.419 19.1077V24H893.249V22.9945H893.191C892.949 23.4876 892.273 24.174 890.987 24.174C889.575 24.174 888.454 23.3425 888.454 21.8923ZM889.633 21.9503C889.633 22.7334 890.281 23.1298 891.18 23.1298C892.514 23.1298 893.249 22.2403 893.249 21.3122V20.5628C892.901 20.5822 891.736 20.6692 891.383 20.6934C890.31 20.761 889.633 21.1381 889.633 21.9503ZM900.311 24H899.016L902.641 14.0994H903.937L907.563 24H906.267L905.281 21.2155H901.297L900.311 24ZM901.679 20.1326H904.899L903.328 15.6948H903.25L901.679 20.1326ZM909.819 19.5428V24H908.64V16.5746H909.78V17.7445H909.877C910.225 16.9807 910.921 16.4779 912.043 16.4779C913.551 16.4779 914.557 17.3964 914.557 19.2818V24H913.377V19.3688C913.377 18.2182 912.749 17.5318 911.695 17.5318C910.612 17.5318 909.819 18.2569 909.819 19.5428ZM915.989 21.8923C915.989 20.1906 917.487 19.8039 918.773 19.7072C919.257 19.6733 920.456 19.6057 920.784 19.596V18.9917C920.784 18.0539 920.224 17.5028 919.102 17.5028C918.164 17.5028 917.603 17.9378 917.429 18.5083H916.211C916.356 17.3094 917.516 16.4779 919.16 16.4779C920.127 16.4779 921.954 16.768 921.954 19.1077V24H920.784V22.9945H920.726C920.485 23.4876 919.808 24.174 918.522 24.174C917.11 24.174 915.989 23.3425 915.989 21.8923ZM917.168 21.9503C917.168 22.7334 917.816 23.1298 918.715 23.1298C920.049 23.1298 920.784 22.2403 920.784 21.3122V20.5628C920.436 20.5822 919.271 20.6692 918.918 20.6934C917.845 20.761 917.168 21.1381 917.168 21.9503ZM924.913 14.0994V24H923.733V14.0994H924.913ZM927.441 26.7845C927.189 26.7845 926.938 26.7749 926.783 26.7555L926.793 25.7113C926.909 25.721 927.179 25.7307 927.363 25.7307C927.837 25.7307 928.243 25.7017 928.639 24.6188L928.852 24.0483L926.106 16.5746H927.383L929.413 22.4724H929.49L931.521 16.5746H932.797L929.655 25.0732C929.22 26.2334 928.494 26.7845 927.441 26.7845ZM938.139 18.5083C937.984 17.8895 937.51 17.4834 936.64 17.4834C935.722 17.4834 935.074 17.9765 935.074 18.5953C935.074 19.0884 935.47 19.4268 936.341 19.6395L937.452 19.9102C938.777 20.2293 939.425 20.8867 939.425 21.9213C939.425 23.2072 938.381 24.1547 936.515 24.1547C934.852 24.1547 933.856 23.4102 933.662 22.0566H934.89C935.026 22.7818 935.557 23.1298 936.495 23.1298C937.549 23.1298 938.216 22.6851 938.216 21.989C938.216 21.4669 937.839 21.1188 936.998 20.9254L935.877 20.6644C934.581 20.3646 933.894 19.6588 933.894 18.663C933.894 17.3964 935.006 16.4779 936.64 16.4779C938.178 16.4779 939.144 17.2997 939.299 18.5083H938.139ZM940.85 24V16.5746H942.03V24H940.85ZM940.618 14.5635C940.618 14.1285 940.995 13.7804 941.45 13.7804C941.895 13.7804 942.272 14.1285 942.272 14.5635C942.272 14.9986 941.895 15.3467 941.45 15.3467C940.995 15.3467 940.618 14.9986 940.618 14.5635ZM947.942 18.5083C947.787 17.8895 947.313 17.4834 946.443 17.4834C945.525 17.4834 944.877 17.9765 944.877 18.5953C944.877 19.0884 945.273 19.4268 946.143 19.6395L947.255 19.9102C948.58 20.2293 949.228 20.8867 949.228 21.9213C949.228 23.2072 948.183 24.1547 946.317 24.1547C944.654 24.1547 943.659 23.4102 943.465 22.0566H944.693C944.828 22.7818 945.36 23.1298 946.298 23.1298C947.352 23.1298 948.019 22.6851 948.019 21.989C948.019 21.4669 947.642 21.1188 946.801 20.9254L945.679 20.6644C944.384 20.3646 943.697 19.6588 943.697 18.663C943.697 17.3964 944.809 16.4779 946.443 16.4779C947.98 16.4779 948.947 17.2997 949.102 18.5083H947.942Z" fill="#666666"/>
</g>
<path d="M1010.59 24.59L1015.17 20L1010.59 15.41L1012 14L1018 20L1012 26L1010.59 24.59Z" fill="#666666"/>
<defs>
<clipPath id="clip0_1_2510">
<rect width="970" height="40" fill="white"/>
</clipPath>
</defs>
</svg>
