<svg width="40" height="40" viewBox="0 0 40 40" fill="none" xmlns="http://www.w3.org/2000/svg">
<path d="M25.8044 22.226C21.2578 22.226 17.5586 18.5268 17.5586 13.9802C17.5586 9.43356 21.2578 5.73438 25.8044 5.73438C30.351 5.73438 34.0502 9.43356 34.0502 13.9802C34.0502 18.5271 30.351 22.226 25.8044 22.226ZM25.8044 6.59102C21.7287 6.59102 18.4152 9.90475 18.4152 13.9802C18.4152 18.0556 21.729 21.3693 25.8044 21.3693C29.8798 21.3693 33.1936 18.0556 33.1936 13.9802C33.1936 9.90475 29.8798 6.59102 25.8044 6.59102Z" fill="#0166B8" stroke="#0166B8" stroke-width="0.5"/>
<path d="M25.8032 9.43352C25.5634 9.43352 25.375 9.24511 25.375 9.00536V6.16254C25.375 5.92279 25.5634 5.73438 25.8032 5.73438C26.0429 5.73438 26.2313 5.92279 26.2313 6.16254V9.00536C26.2311 9.24511 26.0429 9.43352 25.8032 9.43352Z" fill="#0166B8" stroke="#0166B8" stroke-width="0.5"/>
<path d="M20.8296 14.4032H17.9868C17.747 14.4032 17.5586 14.2148 17.5586 13.975C17.5586 13.7353 17.747 13.5469 17.9868 13.5469H20.8296C21.0693 13.5469 21.2577 13.7353 21.2577 13.975C21.2577 14.2148 21.0693 14.4032 20.8296 14.4032Z" fill="#0166B8" stroke="#0166B8" stroke-width="0.5"/>
<path d="M25.8032 22.2304C25.5634 22.2304 25.375 22.042 25.375 21.8022V18.9594C25.375 18.7197 25.5634 18.5312 25.8032 18.5312C26.0429 18.5312 26.2313 18.7197 26.2313 18.9594V21.8022C26.2311 22.042 26.0429 22.2304 25.8032 22.2304Z" fill="#0166B8" stroke="#0166B8" stroke-width="0.5"/>
<path d="M33.6225 14.4032H30.7797C30.54 14.4032 30.3516 14.2148 30.3516 13.975C30.3516 13.7353 30.54 13.5469 30.7797 13.5469H33.6225C33.8623 13.5469 34.0507 13.7353 34.0507 13.975C34.0507 14.2148 33.8623 14.4032 33.6225 14.4032Z" fill="#0166B8" stroke="#0166B8" stroke-width="0.5"/>
<path d="M22.9102 9.39174C22.7645 9.39174 22.6191 9.31461 22.542 9.1778L21.5316 7.4224C21.4118 7.21678 21.4803 6.9601 21.6856 6.84023C21.8913 6.72036 22.1565 6.7889 22.2678 6.99424L23.2782 8.74964C23.398 8.95526 23.3295 9.21194 23.1242 9.33181C23.0556 9.37481 22.9871 9.39174 22.9102 9.39174Z" fill="#0166B8" stroke="#0166B8" stroke-width="0.5"/>
<path d="M20.7996 11.514C20.731 11.514 20.6539 11.4968 20.5856 11.454L18.8302 10.4437C18.6246 10.3238 18.5564 10.0668 18.6762 9.86149C18.7961 9.65587 19.0531 9.5876 19.2584 9.70748L21.0138 10.7178C21.2194 10.8377 21.2877 11.0947 21.1678 11.3C21.0907 11.4368 20.945 11.514 20.7996 11.514Z" fill="#0166B8" stroke="#0166B8" stroke-width="0.5"/>
<path d="M19.0288 18.3186C18.8831 18.3186 18.7377 18.2414 18.6605 18.1046C18.5407 17.899 18.6092 17.6423 18.8146 17.5225L20.57 16.5121C20.7756 16.3922 21.0323 16.4608 21.1521 16.6661C21.272 16.8717 21.2035 17.1284 20.9981 17.2483L19.2427 18.2586C19.183 18.3014 19.1059 18.3186 19.0288 18.3186Z" fill="#0166B8" stroke="#0166B8" stroke-width="0.5"/>
<path d="M21.8997 21.1809C21.8311 21.1809 21.754 21.1637 21.6857 21.1209C21.4801 21.0011 21.4118 20.7441 21.5317 20.5388L22.5421 18.7834C22.6619 18.5777 22.9189 18.5095 23.1242 18.6294C23.3298 18.7492 23.3981 19.0062 23.2782 19.2115L22.2679 20.9669C22.191 21.1037 22.0453 21.1809 21.8997 21.1809Z" fill="#0166B8" stroke="#0166B8" stroke-width="0.5"/>
<path d="M29.7188 21.1806C29.5731 21.1806 29.4277 21.1034 29.3506 20.9666L28.3402 19.2112C28.2204 19.0056 28.2889 18.7489 28.4942 18.6291C28.6999 18.5092 28.9651 18.5777 29.0764 18.7831L30.0868 20.5385C30.2066 20.7441 30.1381 21.0008 29.9328 21.1206C29.8642 21.1634 29.7871 21.1806 29.7188 21.1806Z" fill="#0166B8" stroke="#0166B8" stroke-width="0.5"/>
<path d="M32.5769 18.3186C32.5084 18.3186 32.4313 18.3014 32.363 18.2587L30.6076 17.2483C30.402 17.1285 30.3337 16.8715 30.4536 16.6662C30.5734 16.4606 30.8304 16.3923 31.0357 16.5122L32.7911 17.5225C32.9968 17.6424 33.065 17.8994 32.9451 18.1047C32.868 18.2415 32.7226 18.3186 32.5769 18.3186Z" fill="#0166B8" stroke="#0166B8" stroke-width="0.5"/>
<path d="M30.8217 11.5139C30.6761 11.5139 30.5307 11.4368 30.4535 11.2999C30.3336 11.0943 30.4022 10.8376 30.6075 10.7178L32.3629 9.70742C32.5685 9.58754 32.8338 9.65608 32.9451 9.86143C33.065 10.067 32.9964 10.3237 32.7911 10.4436L31.036 11.4626C30.9674 11.4967 30.8903 11.5139 30.8217 11.5139Z" fill="#0166B8" stroke="#0166B8" stroke-width="0.5"/>
<path d="M28.6965 9.3918C28.628 9.3918 28.5509 9.3746 28.4826 9.33187C28.277 9.21199 28.2087 8.95504 28.3286 8.7497L29.3389 6.9943C29.4588 6.78869 29.7158 6.72042 29.9211 6.84029C30.1267 6.96017 30.195 7.21712 30.0751 7.42246L29.0645 9.17786C28.9876 9.31493 28.8419 9.3918 28.6965 9.3918Z" fill="#0166B8" stroke="#0166B8" stroke-width="0.5"/>
<path d="M25.8032 16.0903C25.5634 16.0903 25.375 15.9019 25.375 15.6622V13.9753C25.375 13.8982 25.3922 13.8296 25.4349 13.7614L27.3016 10.5334C27.4215 10.3277 27.6784 10.2595 27.8838 10.3794C28.0894 10.4992 28.1576 10.7562 28.0378 10.9615L26.231 14.0952V15.6621C26.231 15.9019 26.0429 16.0903 25.8032 16.0903Z" fill="#0166B8" stroke="#0166B8" stroke-width="0.5"/>
<path d="M25.8021 24.9631C19.7485 24.9631 14.8164 20.0396 14.8164 13.9774C14.8164 7.91521 19.7485 3 25.8021 3C31.8557 3 36.7878 7.92347 36.7878 13.9857C36.7875 20.0477 31.8554 24.9631 25.8021 24.9631ZM25.8021 3.85596C20.2193 3.85596 15.6724 8.40257 15.6724 13.9857C15.6724 19.5685 20.219 24.1154 25.8021 24.1154C31.3849 24.1154 35.9318 19.5688 35.9318 13.9857C35.9316 8.40291 31.3849 3.85596 25.8021 3.85596Z" fill="#0166B8" stroke="#0166B8" stroke-width="0.5"/>
<path d="M19.6469 37.9981C18.0114 37.9981 16.5815 37.159 13.0708 35.0953C12.4972 34.7529 11.8634 34.3847 11.1614 33.9737C11.0329 33.8965 10.9045 33.8197 10.776 33.7425C9.97962 33.2544 9.22625 32.8007 8.41261 33.126C8.19006 33.2117 7.94171 33.1088 7.85598 32.8862C7.77024 32.6637 7.87318 32.4153 8.09573 32.3296C9.31168 31.8501 10.3648 32.4922 11.2211 33.0147C11.3409 33.0918 11.4694 33.1687 11.5893 33.2372C12.2913 33.6482 12.9251 34.0164 13.5073 34.3589C16.3415 36.0199 17.7542 36.8507 18.9788 37.0732C20.1689 37.2872 21.2822 36.9275 23.5085 36.2083C24.9128 35.7546 26.6596 35.1894 29.1171 34.53L36.1298 32.6462C36.7206 32.4922 37.2087 32.1068 37.517 31.5759C37.8253 31.0451 37.9108 30.4285 37.7481 29.8377C37.4227 28.6131 36.164 27.8853 34.9397 28.2108L25.3584 30.7795C25.307 31.0964 25.2044 31.413 25.0329 31.7043C24.3051 32.9716 22.6781 33.4084 21.4108 32.6719L15.7509 29.4008C15.5453 29.281 15.477 29.024 15.5969 28.8187C15.7168 28.6131 15.9737 28.5448 16.1791 28.6647L21.839 31.9357C22.6953 32.4324 23.7914 32.1327 24.2878 31.2764C24.4335 31.0194 24.5104 30.7455 24.5276 30.4545V30.4117C24.5276 30.2491 24.5104 30.0779 24.4676 29.915C24.3392 29.4527 24.0481 29.0673 23.6371 28.8275L17.9772 25.5565C17.1553 25.0856 16.4189 24.6147 15.6996 24.1608C12.2918 22.0117 10.0483 20.5901 5.63867 22.6624C5.42472 22.7651 5.16777 22.671 5.0651 22.4568C4.96243 22.2428 5.0565 21.9859 5.27071 21.8832C10.1087 19.6056 12.7713 21.2924 16.1539 23.4329C16.8645 23.8783 17.5924 24.3406 18.3973 24.8115L24.0572 28.0825C24.6652 28.4335 25.102 29.0073 25.2904 29.6922C25.3076 29.7608 25.3245 29.8293 25.3331 29.8978L34.7177 27.3891C36.3959 26.9437 38.1255 27.9371 38.5795 29.6153C39.0332 31.2936 38.0314 33.0231 36.3532 33.4771L29.3404 35.361C26.9002 36.0117 25.1704 36.5769 23.7746 37.0306C21.8738 37.6383 20.7178 37.998 19.6476 37.998L19.6469 37.9981Z" fill="#0166B8" stroke="#0166B8" stroke-width="0.5"/>
<path d="M6.41017 36.0141C5.33988 36.0141 4.35512 35.2948 4.064 34.2159L1.08405 23.0844C0.912837 22.4592 1.00691 21.8085 1.3324 21.2435C1.65789 20.6783 2.1801 20.276 2.80528 20.1133L4.74047 19.5997C4.85174 19.5739 4.96302 19.5825 5.06596 19.6424C5.16003 19.7023 5.23717 19.7964 5.26297 19.8994L9.27874 34.8923C9.33868 35.1235 9.2016 35.3546 8.97905 35.4146L7.04386 35.9282C6.82965 35.9795 6.61543 36.0137 6.41009 36.0137L6.41017 36.0141ZM4.54351 20.5325L3.02791 20.9435C2.62555 21.0548 2.28287 21.3117 2.07755 21.6799C1.8636 22.0482 1.812 22.4677 1.91494 22.8701L4.89489 33.9927C5.11744 34.8318 5.98238 35.3285 6.82148 35.106L8.33709 34.695L4.54351 20.5325Z" fill="#0166B8" stroke="#0166B8" stroke-width="0.5"/>
</svg>
