<svg width="40" height="40" viewBox="0 0 40 40" fill="none" xmlns="http://www.w3.org/2000/svg">
<path d="M37.432 18.964C37.4958 17.2487 36.2308 15.7793 34.5611 15.5653L34.5338 15.5381H33.1779C32.9367 14.7691 32.6229 14.0137 32.2496 13.2813L33.0411 12.4898C34.2513 11.1568 34.1694 9.07296 32.8774 7.86255L31.6264 6.60226C30.4026 5.28299 28.3232 5.20556 26.981 6.44771L26.2212 7.21192C25.498 6.83426 24.7515 6.52483 23.9873 6.27922V5.16907C23.9146 3.36297 22.3674 1.93418 20.6159 2.00234H18.846C17.0399 1.93855 15.5247 3.35818 15.4517 5.19629V6.28361C14.6828 6.52925 13.9322 6.84312 13.2178 7.21631L12.4352 6.42924C11.7938 5.83323 10.9566 5.52822 10.0829 5.56031C9.20913 5.59205 8.39952 5.96528 7.82161 6.59303L6.55693 7.86697C5.90189 8.52202 5.53307 9.39131 5.52422 10.3237C5.51977 11.1473 5.8473 11.948 6.41605 12.5212L7.18027 13.2901C6.80261 14.0226 6.49317 14.7779 6.25195 15.5469H5.15099C3.35374 15.6196 1.94339 17.1531 2.00237 18.9411V20.7155C1.93414 22.5216 3.34456 24.0552 5.17829 24.1371H6.25195C6.49316 24.9105 6.80703 25.6658 7.18027 26.3938L6.42049 27.1628C5.79273 27.7953 5.46967 28.6687 5.53312 29.5561C5.58771 30.407 5.95172 31.2121 6.56137 31.8173L7.8124 33.0684C8.40841 33.7145 9.21357 34.0874 10.0873 34.1195C10.9562 34.156 11.7979 33.8466 12.4621 33.2277L13.2219 32.4635C13.9226 32.8319 14.7326 33.1414 15.4923 33.387V36.9996H16.8573V26.2166L16.466 26.03C15.0921 25.3749 13.9455 24.2737 13.2355 22.9227C11.4338 19.4875 12.7306 15.2334 16.0836 13.3998V20.5793H23.3586V13.4134C24.6462 14.1231 25.6973 15.2425 26.3295 16.5757C27.1438 18.2863 27.2441 20.2108 26.6068 21.9992C25.9743 23.7828 24.6823 25.2161 22.9717 26.0304L22.5804 26.217V37H23.9454V33.3829C24.7052 33.1373 25.5288 32.8323 26.2203 32.4683L26.9982 33.2553C27.6396 33.8513 28.4724 34.1563 29.3505 34.1243C30.2242 34.0878 31.0294 33.7148 31.6118 33.0915L32.8584 31.8312C34.1688 30.5983 34.2459 28.5144 33.0177 27.1586L32.2535 26.3944C32.6312 25.6664 32.9406 24.911 33.1818 24.1376H34.2828C36.08 24.0649 37.4904 22.5314 37.4314 20.7434V18.969L37.432 18.964ZM34.2561 22.7677H32.1542L32.0177 23.2726C31.7447 24.2691 31.3442 25.2473 30.8212 26.18L30.5663 26.6303L32.0313 28.0953C32.7457 28.8779 32.6955 30.1064 31.9085 30.8478L30.6301 32.1398C30.2842 32.5174 29.8113 32.7314 29.3016 32.7539C28.7967 32.772 28.305 32.5946 27.9502 32.267L26.458 30.7612L26.0029 31.0249C25.3796 31.3845 24.6607 31.6891 23.9419 31.9348V27.0619C25.789 26.0653 27.1813 24.4458 27.8865 22.453C28.6418 20.3238 28.5234 18.0261 27.5542 15.9879C26.7763 14.3455 25.4611 12.9761 23.846 12.1297C23.5411 11.9752 23.1954 11.9431 22.8724 12.0478C22.5449 12.1526 22.2808 12.3754 22.1218 12.6892C22.0307 12.8711 21.9854 13.0625 21.9854 13.258V19.2089H17.44V13.2443C17.4264 12.5436 16.8532 11.984 16.1706 11.984C15.9567 11.984 15.77 12.025 15.5653 12.1297C11.4434 14.2999 9.85082 19.4275 12.0165 23.5545C12.7944 25.0331 14.014 26.2661 15.479 27.0624V31.9397C14.7646 31.6896 14.0594 31.3846 13.4269 31.0206L12.9718 30.7613L11.502 32.2399C11.1244 32.5903 10.6375 32.7677 10.1281 32.7496C9.61845 32.7315 9.15002 32.5132 8.78596 32.1171L7.51649 30.8432C7.14326 30.4699 6.92047 29.9786 6.88397 29.4557C6.84747 28.9552 7.02964 28.4684 7.38002 28.1135L8.85862 26.6164L8.60377 26.1661C8.08519 25.247 7.68025 24.2688 7.40726 23.2634L7.27079 22.7585H5.19617C4.14062 22.7131 3.31703 21.8121 3.35351 20.7292V18.9046C3.31701 17.8399 4.14058 16.9392 5.1644 16.8983H7.26632L7.40279 16.3933C7.67573 15.3968 8.07625 14.4187 8.5993 13.4859L8.84939 13.0356L7.36161 11.5386C7.04297 11.2199 6.86556 10.7743 6.86556 10.3192C6.87 9.7505 7.09756 9.21825 7.50251 8.81332L8.7901 7.51655C9.13603 7.14332 9.6089 6.92498 10.1186 6.90689C10.6328 6.8888 11.1152 7.0662 11.47 7.39373L12.9578 8.89077L13.4129 8.63148C14.3228 8.11291 15.292 7.70796 16.2975 7.42579L16.7979 7.28488V5.20108C16.8389 4.14106 17.7443 3.31308 18.8043 3.34477H20.6197C21.6572 3.31303 22.5623 4.14104 22.6032 5.17378V7.28488L23.1037 7.42135C24.1003 7.69873 25.0691 8.10368 25.9883 8.62704L26.4434 8.88633L27.9131 7.40773C28.6866 6.69333 29.8967 6.73903 30.6295 7.52611L31.9171 8.82288C32.6861 9.54615 32.7359 10.7703 32.0444 11.53L30.5521 13.0222L30.807 13.4726C31.3303 14.4009 31.7305 15.379 32.0035 16.38L32.1399 16.8849H34.2194C35.2749 16.9303 36.0985 17.8313 36.0576 18.9186V20.7431C36.0941 21.8079 35.2705 22.7086 34.2467 22.7495L34.2561 22.7677Z" fill="#0166B8" stroke="#0166B8" stroke-width="0.5"/>
</svg>
