<svg width="40" height="40" viewBox="0 0 40 40" fill="none" xmlns="http://www.w3.org/2000/svg">
<path d="M12.425 25.7065C11.1804 25.4792 9.9913 25.0488 8.89092 24.4276C8.68578 24.3123 8.42996 24.3423 8.2573 24.5021C7.2881 25.3994 6.02666 25.8942 4.70527 25.8942C4.46185 25.8942 4.22108 25.8779 3.98291 25.8451C5.02969 25.1149 5.84364 24.076 6.29431 22.862C6.36612 22.6693 6.32203 22.4526 6.18131 22.3031C4.18304 20.1794 3.08259 17.4042 3.08259 14.4881C3.08259 8.19879 8.19911 3.08214 14.4885 3.08214C20.0006 3.08214 24.7191 7.01116 25.7079 12.424C25.7615 12.7181 26.0432 12.9124 26.3373 12.8591C26.6309 12.8052 26.8255 12.5235 26.7719 12.2299C25.689 6.3021 20.523 2 14.488 2C7.60227 2 2 7.60206 2 14.488C2 17.564 3.11836 20.4971 5.15678 22.7863C4.60842 24.0206 3.59593 25.0042 2.33793 25.5136C2.13359 25.5965 2 25.795 2 26.0149C2 26.2356 2.13359 26.4339 2.33793 26.5166C3.09065 26.8215 3.88689 26.9759 4.70428 26.9759C6.1674 26.9759 7.57037 26.4733 8.69535 25.5529C9.80553 26.1356 10.9925 26.5445 12.2297 26.7703C12.5235 26.8236 12.8052 26.6293 12.8588 26.3354C12.9124 26.0416 12.7181 25.7596 12.424 25.7063L12.425 25.7065Z" fill="#0166B8" stroke="#0166B8" stroke-width="0.8"/>
<path d="M31.3478 21.7737L26.9737 21.115L24.9952 17.1582C24.9036 16.975 24.7164 16.8594 24.5115 16.8594C24.3064 16.8594 24.1195 16.975 24.0279 17.1582L22.0496 21.115L17.6752 21.7737C17.4729 21.804 17.305 21.9463 17.2414 22.1414C17.178 22.3363 17.23 22.5501 17.3763 22.694L20.5278 25.7977L19.8026 30.1615C19.7693 30.3635 19.8528 30.5673 20.0183 30.6877C20.1838 30.8084 20.4035 30.8247 20.5854 30.7302L24.5115 28.6923L28.4376 30.7302C28.516 30.7711 28.6013 30.7909 28.6869 30.7909C28.7991 30.7909 28.9105 30.7561 29.0045 30.6877C29.1705 30.5673 29.2539 30.3635 29.2204 30.1615L28.4952 25.7977L31.6467 22.694C31.7927 22.5501 31.8447 22.3363 31.7816 22.1414C31.7183 21.9463 31.5503 21.804 31.3478 21.7737ZM27.5362 25.2243C27.4108 25.3479 27.3533 25.5245 27.3818 25.6982L27.9756 29.2719L24.7605 27.6025C24.6047 27.5215 24.4183 27.5215 24.2625 27.6025L21.0472 29.2719L21.6409 25.6982C21.6697 25.5245 21.6124 25.3479 21.4867 25.2243L18.906 22.6824L22.4881 22.1425C22.6621 22.1167 22.8126 22.0074 22.8912 21.85L24.5115 18.6096L26.1315 21.85C26.2099 22.0074 26.3607 22.1167 26.5346 22.1425L30.117 22.6824L27.5362 25.2243Z" fill="#0166B8" stroke="#0166B8" stroke-width="0.8"/>
<path d="M36.6612 35.5377C35.403 35.0279 34.3907 34.0441 33.8424 32.8104C35.8808 30.5206 36.9995 27.5875 36.9995 24.5114C36.9995 17.6257 31.3974 12.0234 24.5114 12.0234C17.6257 12.0234 12.0234 17.6255 12.0234 24.5114C12.0234 31.3972 17.6255 36.9994 24.5114 36.9994C26.5311 36.9994 28.5255 36.5084 30.3038 35.5764C31.4288 36.4967 32.8312 36.9994 34.2952 36.9994C35.1123 36.9994 35.9085 36.845 36.6612 36.5401C36.8656 36.4574 36.9994 36.2592 36.9994 36.0384C36.9994 35.8185 36.8656 35.6201 36.6612 35.5377ZM34.2952 35.9176C32.9738 35.9176 31.7121 35.4228 30.7431 34.5254C30.6404 34.4301 30.5082 34.381 30.3754 34.381C30.2843 34.381 30.1927 34.404 30.1095 34.451C28.4096 35.4107 26.4741 35.9176 24.5114 35.9176C18.2222 35.9176 13.1055 30.8008 13.1055 24.5116C13.1055 18.2221 18.2223 13.1057 24.5114 13.1057C30.801 13.1057 35.9181 18.2222 35.9181 24.5116C35.9181 27.4276 34.8174 30.2034 32.8191 32.3267C32.6784 32.4761 32.6345 32.6929 32.7061 32.8856C33.1567 34.0995 33.9707 35.1384 35.0177 35.8687C34.7793 35.9014 34.5386 35.9178 34.2954 35.9178L34.2952 35.9176Z" fill="#0166B8" stroke="#0166B8" stroke-width="0.8"/>
</svg>
